<?xml version="1.0" standalone="no"?>
<!DOCTYPE svg PUBLIC "-//W3C//DTD SVG 20010904//EN"
 "http://www.w3.org/TR/2001/REC-SVG-20010904/DTD/svg10.dtd">
<svg version="1.0" xmlns="http://www.w3.org/2000/svg"
 width="121.000000pt" height="112.000000pt" viewBox="0 0 121.000000 112.000000"
 preserveAspectRatio="xMidYMid meet">
<metadata>
Created by potrace 1.16, written by Peter Selinger 2001-2019
</metadata>
<g transform="translate(0.000000,112.000000) scale(0.100000,-0.100000)"
fill="#000000" stroke="none">
<path d="M721 1053 c-14 -48 -14 -83 -1 -83 5 0 15 10 22 23 12 22 12 22 19
-8 l6 -30 10 25 c12 29 7 50 -13 50 -9 0 -14 11 -14 30 0 42 -17 37 -29 -7z"/>
<path d="M643 1062 c-15 -10 -12 -80 4 -86 37 -15 58 26 26 50 -17 13 -17 13
0 14 10 0 17 6 15 13 -6 15 -29 20 -45 9z"/>
<path d="M552 1053 c-19 -4 -23 -10 -20 -36 4 -37 23 -46 32 -15 6 23 7 23 21
4 21 -27 38 -9 22 23 -13 27 -21 30 -55 24z"/>
<path d="M457 1043 c-14 -14 -7 -62 11 -72 23 -12 55 4 34 17 -10 7 -10 11 3
22 12 10 13 16 4 26 -12 15 -41 19 -52 7z"/>
<path d="M370 995 c-11 -14 -7 -19 13 -16 4 1 5 -10 1 -23 -8 -32 11 -42 41
-22 27 18 34 42 10 32 -11 -4 -15 1 -15 19 0 29 -30 35 -50 10z"/>
<path d="M807 992 c-25 -27 -21 -51 10 -63 30 -11 39 -5 49 36 l7 29 -28 -18
-28 -18 7 26 c8 31 5 32 -17 8z"/>
<path d="M296 947 c-16 -12 -16 -14 4 -40 23 -29 57 -38 46 -12 -3 8 -9 22
-12 30 -3 8 -1 15 5 15 6 0 11 5 11 10 0 14 -33 12 -54 -3z"/>
<path d="M870 930 c-26 -26 -18 -42 15 -30 23 9 25 8 19 -15 -7 -27 4 -33 24
-13 17 17 15 58 -3 58 -8 0 -15 5 -15 10 0 16 -19 11 -40 -10z"/>
<path d="M242 898 c-27 -27 -6 -68 34 -68 22 0 42 29 26 39 -5 3 -11 14 -15
24 -7 20 -28 22 -45 5z"/>
<path d="M935 860 c-17 -18 -17 -21 -1 -45 21 -32 29 -31 74 2 55 41 68 68 21
43 -18 -10 -23 -9 -31 4 -12 22 -41 20 -63 -4z"/>
<path d="M178 830 c20 -17 21 -22 10 -40 -9 -14 -20 -20 -36 -17 -38 7 -20
-16 32 -41 53 -26 74 -21 36 8 -34 26 -17 56 29 52 44 -5 38 10 -14 36 -59 28
-90 30 -57 2z"/>
<path d="M986 784 c-28 -27 -15 -51 28 -50 36 1 55 28 37 50 -17 20 -45 20
-65 0z"/>
<path d="M440 752 c-37 -19 -80 -88 -80 -128 0 -34 37 -74 70 -74 30 0 46 14
52 45 5 29 32 25 36 -6 4 -30 -10 -44 -58 -56 -28 -7 -36 -15 -38 -37 -3 -22
5 -36 38 -67 44 -42 128 -89 159 -89 23 0 129 76 159 115 41 52 29 67 -70 89
-48 11 -45 76 3 76 13 0 19 -7 19 -24 0 -30 22 -48 57 -48 35 0 53 26 53 80 0
40 -5 50 -40 84 -34 31 -48 38 -82 38 -24 0 -55 -9 -76 -22 l-35 -21 -16 20
c-38 46 -93 55 -151 25z"/>
<path d="M126 644 c-8 -21 11 -44 35 -44 23 0 32 15 24 40 -8 24 -50 27 -59 4z"/>
<path d="M1024 646 c-10 -26 4 -48 28 -44 17 2 23 10 23 28 0 18 -6 26 -23 28
-13 2 -25 -3 -28 -12z"/>
<path d="M142 514 c-16 -11 -22 -25 -22 -54 0 -44 10 -55 46 -46 15 4 24 14
24 26 0 22 -16 27 -23 8 -3 -10 -8 -10 -17 -2 -16 16 4 54 29 54 20 0 51 -30
51 -48 0 -7 5 -12 10 -12 19 0 10 41 -15 65 -28 29 -51 31 -83 9z"/>
<path d="M986 501 c-4 -5 8 -21 26 -35 24 -18 29 -26 18 -30 -59 -21 -70 -27
-70 -37 0 -7 9 -9 23 -6 12 3 39 9 60 12 52 10 56 23 16 57 -47 39 -67 50 -73
39z"/>
<path d="M183 402 c-43 -20 -45 -46 -3 -37 19 4 30 3 30 -4 0 -6 5 -11 10 -11
12 0 14 57 3 63 -5 3 -23 -2 -40 -11z"/>
<path d="M950 325 c-25 -30 25 -82 59 -60 13 8 15 35 2 35 -5 0 -11 9 -14 20
-6 23 -29 26 -47 5z"/>
<path d="M204 316 c-10 -8 -16 -17 -13 -21 8 -7 59 15 59 27 0 13 -24 10 -46
-6z"/>
<path d="M230 285 c-10 -13 -10 -21 -1 -43 11 -23 14 -25 24 -11 7 9 18 14 26
11 19 -6 31 18 20 40 -12 22 -52 24 -69 3z"/>
<path d="M864 255 c15 -23 15 -26 1 -31 -18 -7 -20 -45 -3 -62 18 -18 43 -15
63 8 17 19 17 21 -19 65 -40 48 -70 62 -42 20z"/>
<path d="M300 222 c-15 -12 -21 -25 -17 -36 8 -19 35 -32 45 -21 4 4 1 10 -5
12 -7 3 -13 11 -13 18 0 18 25 26 40 12 9 -9 11 -8 8 8 -4 27 -30 30 -58 7z"/>
<path d="M380 200 c-11 -21 -20 -46 -20 -55 0 -17 16 -20 25 -5 11 17 25 11
25 -11 0 -18 2 -19 15 -9 20 16 19 49 -1 57 -11 4 -13 13 -9 34 10 42 -11 36
-35 -11z"/>
<path d="M790 170 c0 -5 -7 -10 -16 -10 -11 0 -14 -6 -9 -22 14 -45 45 -49 45
-6 0 20 1 21 20 3 19 -18 20 -17 20 1 0 11 -5 25 -12 32 -15 15 -48 16 -48 2z"/>
<path d="M630 131 c0 -46 9 -73 21 -65 17 10 6 104 -12 104 -5 0 -9 -18 -9
-39z"/>
<path d="M460 146 c-19 -24 -8 -61 19 -64 18 -3 22 0 18 11 -4 10 2 17 14 20
17 5 19 9 9 26 -12 24 -42 27 -60 7z"/>
<path d="M690 136 c-18 -23 -9 -62 15 -58 55 7 59 12 44 46 -13 29 -40 34 -59
12z"/>
<path d="M536 104 c-9 -36 8 -53 26 -25 16 27 24 27 32 -1 4 -16 8 -20 16 -12
6 6 8 23 4 38 -5 21 -12 26 -39 26 -27 0 -34 -5 -39 -26z"/>
</g>
</svg>
