<?xml version="1.0" encoding="UTF-8"?>
<svg id="schwarz" xmlns="http://www.w3.org/2000/svg" viewBox="0 0 253.06 261.58">
  <g>
    <path d="M127.98,140.9c.09,3.58.17,7.16.26,10.74,20.88,16.43,61.12,26.07,64.47-10.49.67-7.32-1.32-14.13,1.15-15.22,4.32-1.91,4.54,2.97,4.73,5.76,1.96,28.17-14.06,44.96-42.59,39.27-6.6,22.36-52.71,20.81-59.86-.51-25.28,5.49-42.66-7.11-43.36-33.13-.05-1.82.21-9.66.77-10.74,1.07-2.08,4.83-1.72,5.37.51.53,2.2-2.88,19.73,5.88,30.44,13.64,16.66,43.79,5.24,57.82-5.88-.09-3.67-.17-7.33-.26-11l5.63.26ZM125.04,157.15c-7.14,4.9-14.86,9.06-23.15,11.64,4.57,14.62,34.72,15.47,44.13,7.29,1.07-.93,5-5.71,3.58-6.91-3.16-1.19-6.31-2.39-9.47-3.58-2.56-1.36-5.12-2.73-7.67-4.09-1.42-.8-6.33-4.53-7.42-4.35Z"/>
    <path d="M76.43,90.38c4.97-.66,5.42,6.46,1.53,7.16-5.08.91-5.94-6.58-1.53-7.16Z"/>
    <path d="M174.92,90.89c7.04-1.14,8.48,9.41,2.05,10.23-6.87.87-8.01-9.26-2.05-10.23Z"/>
    <path d="M61.34,104.71c7.1-1.12,8.06,8.37,2.56,9.72-7.28,1.79-8.66-8.76-2.56-9.72Z"/>
    <path d="M191.04,105.47c5.82-.96,6.44,7.25,2.3,8.19-6.39,1.44-7.17-7.38-2.3-8.19Z"/>
    <path d="M80.78,113.4c5.93-1.24,6.88,7.23,2.3,8.19-5.95,1.24-6.89-7.23-2.3-8.19Z"/>
    <path d="M169.8,114.94c4.86-.66,5.07,6.55,1.02,6.91-4.26.38-5.07-6.36-1.02-6.91Z"/>
  </g>
  <g id="LFvktZ">
    <path d="M127.98,140.9c-1.31.73-4.16.6-5.63-.26M122.35,140.64c-11.01-5.73-24.7-26.98-26.35-38.63-1.32-9.36,2.34-20.8,13.17-21.62,12.84-.97,14.7,9.95,16.76,13.17,5.56,8.7,3.83-15.69,21.62-12.15,9.3,1.85,12.42,12,11.64,20.34-1.16,12.37-19.53,33.93-31.21,39.14"/>
  </g>
  <g>
    <path d="M35.14,71.36l-20.22-11.06c-.61-.33-1.22-.41-1.85-.24-.62.17-1.12.59-1.47,1.24-.32.58-.39,1.21-.23,1.87.17.67.55,1.17,1.16,1.5l8.05,4.4-6.1,11.16-8.05-4.4c-.61-.33-1.23-.39-1.88-.18-.64.21-1.12.59-1.43,1.15-.36.65-.45,1.3-.27,1.94.18.64.57,1.13,1.18,1.46l20.23,11.06c.61.33,1.22.41,1.85.24.63-.17,1.12-.59,1.47-1.24.32-.58.4-1.21.23-1.87-.17-.67-.55-1.17-1.16-1.5l-8.15-4.46,6.1-11.16,8.15,4.46c.61.33,1.23.39,1.88.18.64-.21,1.12-.59,1.43-1.15.37-.68.46-1.33.28-1.96s-.58-1.11-1.19-1.44Z"/>
    <path d="M47.43,53.09c-.55.02-1.03.25-1.41.69-.28.32-.49.74-.63,1.25-.08.33-.15.7-.22,1.11-.07.42-.24.9-.51,1.44-.27.54-.73,1.18-1.39,1.92-.71.79-1.57,1.37-2.58,1.73-1.01.36-2.09.43-3.24.22-.67-.13-1.32-.39-1.96-.77l8.74-9.82c.42-.48.65-1.03.67-1.65.02-.62-.2-1.16-.66-1.6-1.07-.95-2.27-1.65-3.58-2.09-1.32-.44-2.65-.64-3.99-.59s-2.63.34-3.85.87c-1.22.53-2.28,1.3-3.18,2.32-1.17,1.31-1.93,2.85-2.3,4.63-.37,1.77-.24,3.58.37,5.43.62,1.85,1.82,3.57,3.61,5.16,1.53,1.36,3.2,2.25,5,2.66,1.8.41,3.61.31,5.42-.3,1.81-.61,3.47-1.76,4.97-3.45.88-.99,1.58-2.1,2.08-3.33.5-1.22.77-2.29.79-3.2.06-.94-.18-1.66-.72-2.13-.4-.35-.87-.52-1.43-.5ZM31.68,52.92c.3-.66.72-1.28,1.25-1.88.55-.62,1.2-1.08,1.95-1.38.75-.31,1.52-.44,2.31-.4.78.04,1.48.3,2.09.77l.21.19-6.94,7.8c-.2-.27-.38-.53-.53-.78-.44-.78-.68-1.53-.72-2.25-.04-.71.09-1.4.39-2.06Z"/>
    <path d="M51.32,41.06c-.59-.75-1.01-1.48-1.24-2.19-.24-.71-.34-1.38-.31-2.01.03-.63.17-1.19.41-1.67.25-.48.56-.87.93-1.17.42-.33.85-.55,1.29-.66.44-.11.86-.32,1.25-.63.42-.33.69-.78.8-1.37.12-.58-.1-1.22-.64-1.91-.38-.48-.92-.73-1.63-.75-.71-.02-1.37.22-2,.71-.52.41-1,.89-1.42,1.42-.42.54-.76,1.12-1.02,1.74-.25.62-.41,1.27-.47,1.95-.04.49,0,.98.06,1.47l-.36-.45c-.43-.54-.96-.86-1.61-.94-.64-.09-1.24.08-1.78.51s-.85.96-.92,1.61c-.07.65.11,1.24.54,1.78l10.18,12.94c.43.54.96.86,1.61.94.64.09,1.24-.08,1.78-.51s.85-.96.92-1.61c.07-.64-.11-1.24-.54-1.78l-5.84-7.43Z"/>
    <path d="M79.28,32.85c-.57-.15-1.14-.08-1.7.23l-7.3,4.05,2.37-15.49c.07-.47.08-.83,0-1.1-.07-.26-.16-.52-.26-.77-.29-.63-.73-1.04-1.32-1.23-.59-.19-1.15-.14-1.69.16l-10.74,5.95c-.56.31-.92.75-1.1,1.31s-.11,1.12.19,1.65c.31.56.75.92,1.33,1.09.58.17,1.15.09,1.7-.22l6.77-3.75-2.36,15.35c-.09.5-.09.91-.01,1.21.08.31.2.64.37,1,.21.43.6.76,1.18.99.58.22,1.16.18,1.74-.15l11.23-6.22c.56-.31.92-.75,1.09-1.33.17-.58.1-1.13-.2-1.67-.31-.56-.75-.91-1.32-1.07Z"/>
    <path d="M98.02,24.76c-.49-.26-1.02-.29-1.57-.11-.4.14-.79.39-1.17.77-.23.24-.48.53-.74.86s-.66.66-1.16,1c-.5.34-1.22.66-2.16.97-1.01.34-2.04.41-3.1.22-1.06-.19-2.03-.67-2.91-1.42-.51-.44-.95-1-1.32-1.64l12.47-4.16c.6-.2,1.07-.57,1.4-1.1s.4-1.1.23-1.72c-.45-1.36-1.14-2.56-2.06-3.6-.92-1.04-1.98-1.87-3.17-2.5-1.19-.63-2.45-1.01-3.77-1.16-1.33-.15-2.63,0-3.92.42-1.66.55-3.1,1.51-4.3,2.86-1.2,1.35-2,2.99-2.38,4.89-.39,1.91-.2,4,.56,6.27.65,1.94,1.65,3.54,3.01,4.8,1.36,1.26,2.97,2.07,4.85,2.44s3.88.2,6.03-.52c1.26-.42,2.41-1.04,3.46-1.85s1.81-1.6,2.28-2.38c.52-.79.67-1.53.44-2.21-.17-.5-.5-.89-.99-1.14ZM83.08,18.35c.32-.64.77-1.17,1.36-1.59.59-.42,1.26-.76,2.02-1.01.78-.26,1.58-.34,2.38-.23s1.54.38,2.2.8,1.14.99,1.43,1.71l.09.27-9.91,3.31c-.04-.33-.07-.65-.07-.94,0-.9.17-1.67.49-2.31Z"/>
    <path d="M121.15,13.84c-.19-1.66-.56-3.15-1.1-4.47-.54-1.32-1.37-2.32-2.48-3.03-1.11-.7-2.64-.94-4.6-.71-.9.1-1.71.34-2.45.7-.73.37-1.38.81-1.93,1.33s-1.03,1.06-1.42,1.63c-.14.21-.26.4-.37.6l-.08-.69c-.08-.69-.37-1.24-.87-1.65-.5-.41-1.1-.58-1.78-.5-.69.08-1.23.38-1.62.89-.4.51-.55,1.11-.48,1.8l1.89,16.36c.08.69.37,1.24.87,1.65.5.41,1.1.58,1.78.5.69-.08,1.23-.37,1.62-.89.4-.51.55-1.11.48-1.8l-1.17-10.14c-.1-.87,0-1.68.3-2.42s.79-1.37,1.47-1.88,1.54-.82,2.6-.94c1.08-.12,1.94,0,2.57.35.63.36,1.1.87,1.4,1.54.31.67.51,1.45.61,2.32l1.17,10.14c.08.69.37,1.24.87,1.65.5.41,1.1.58,1.78.5s1.23-.38,1.62-.89c.4-.51.55-1.11.48-1.8l-1.17-10.14Z"/>
    <path d="M133.38,9.29c.47-.06.91-.07,1.3-.05.98.07,1.84.31,2.57.7s1.3.91,1.71,1.52c.32.34.75.55,1.27.63.53.08,1-.03,1.42-.32.59-.41.88-.9.86-1.46-.01-.56-.15-1.05-.41-1.47-.51-.76-1.15-1.38-1.94-1.88-.79-.5-1.63-.88-2.52-1.14-.89-.26-1.74-.43-2.56-.48-1.3-.09-2.56.07-3.77.49-1.22.42-2.23,1.07-3.04,1.94-.81.88-1.26,1.98-1.36,3.3-.08,1.17.07,2.15.47,2.95.4.8.93,1.46,1.62,1.98.68.52,1.44.95,2.29,1.3.84.35,1.66.68,2.47.98.78.27,1.49.55,2.12.83.63.29,1.14.62,1.51.99.37.37.54.85.5,1.44-.05.69-.26,1.19-.65,1.49-.38.31-.81.49-1.3.55-.48.06-.93.09-1.33.08-1.27-.09-2.32-.38-3.14-.87-.82-.48-1.58-1.14-2.3-1.96-.42-.48-.86-.76-1.34-.84s-.93,0-1.38.24c-.69.38-1.07.86-1.14,1.44-.07.58.02,1.07.25,1.46.93,1.45,2.16,2.51,3.69,3.17s3.07,1.04,4.64,1.15c1.25.09,2.48-.07,3.71-.47,1.23-.4,2.28-1.06,3.14-1.95.86-.9,1.35-2.02,1.44-3.37.08-1.17-.06-2.14-.43-2.93s-.88-1.44-1.54-1.97c-.66-.53-1.38-.96-2.18-1.32s-1.59-.66-2.37-.93c-.75-.27-1.46-.54-2.12-.81-.66-.27-1.18-.6-1.55-.99-.37-.39-.54-.88-.49-1.49.05-.66.26-1.13.62-1.41.37-.28.78-.45,1.26-.51Z"/>
    <path d="M160.91,9.87c-.85-.22-1.67-.3-2.46-.22-.79.08-1.54.26-2.25.54-.71.28-1.33.62-1.88,1.01-.19.14-.36.27-.52.41l2.27-8.55c.18-.67.11-1.28-.21-1.85-.32-.57-.81-.94-1.48-1.11-.67-.18-1.28-.1-1.84.23-.56.33-.92.84-1.1,1.5l-6.33,23.82c-.18.67-.11,1.29.21,1.85.32.57.81.94,1.48,1.11.67.18,1.28.1,1.84-.23s.92-.83,1.1-1.5l2.62-9.87c.22-.85.6-1.57,1.13-2.15s1.19-1,2-1.22,1.69-.21,2.67.05c1,.27,1.72.68,2.15,1.23.43.55.66,1.2.68,1.94.03.74-.07,1.53-.3,2.37l-2.62,9.87c-.18.67-.11,1.29.21,1.85.32.57.81.94,1.48,1.11.67.18,1.28.1,1.84-.23.56-.33.92-.83,1.1-1.5l2.62-9.87c.43-1.62.64-3.14.63-4.56,0-1.42-.39-2.65-1.14-3.71-.75-1.05-2.05-1.82-3.9-2.32Z"/>
    <path d="M190.61,23.49c-.19-.62-.6-1.08-1.22-1.4-.62-.31-1.23-.36-1.85-.15-.61.21-1.07.63-1.39,1.25l-4.56,9.05c-.73,1.45-1.59,2.36-2.58,2.74-.99.38-2.14.24-3.45-.42-1.28-.65-2.07-1.48-2.36-2.5s-.07-2.26.66-3.71l4.56-9.05c.31-.62.37-1.24.18-1.85-.2-.62-.6-1.08-1.22-1.39-.62-.31-1.23-.36-1.85-.15s-1.07.63-1.39,1.24l-4.56,9.05c-1.27,2.52-1.58,4.86-.93,7.03.65,2.17,2.29,3.92,4.92,5.25,2.64,1.33,5.02,1.61,7.17.84,2.14-.77,3.85-2.41,5.11-4.93l4.56-9.05c.31-.62.37-1.23.17-1.85Z"/>
    <path d="M209.98,42.07c.55-1.31.69-2.61.4-3.89-.29-1.28-1.2-2.54-2.73-3.76-.71-.56-1.45-.98-2.22-1.24s-1.55-.41-2.3-.44c-.76-.03-1.48.02-2.15.14-.25.04-.47.1-.69.16l.43-.54c.43-.54.62-1.13.55-1.78s-.36-1.18-.9-1.62-1.13-.61-1.78-.52-1.18.39-1.61.93l-10.28,12.87c-.43.54-.62,1.13-.55,1.78.06.65.36,1.18.9,1.62s1.13.61,1.78.52c.64-.08,1.18-.39,1.61-.93l6.37-7.98c.55-.69,1.19-1.18,1.93-1.49.74-.31,1.53-.4,2.37-.28.84.12,1.67.52,2.5,1.18.85.68,1.37,1.37,1.56,2.07s.16,1.39-.11,2.08c-.26.69-.67,1.38-1.22,2.07l-6.37,7.98c-.43.54-.62,1.13-.55,1.78.06.65.36,1.18.9,1.62s1.13.61,1.78.52c.64-.08,1.18-.39,1.61-.93l6.37-7.98c1.05-1.31,1.84-2.62,2.4-3.93Z"/>
    <path d="M236.78,54.99c.06-.64-.12-1.22-.56-1.76-.44-.54-.98-.83-1.62-.89-.65-.06-1.24.14-1.77.57l-6.08,4.96c.02-.32.04-.66.02-1.02-.03-.88-.22-1.8-.56-2.76-.34-.96-.87-1.88-1.59-2.77-1.13-1.38-2.52-2.34-4.17-2.87-1.66-.54-3.4-.61-5.23-.23-1.83.38-3.6,1.26-5.28,2.64-1.67,1.36-2.87,2.9-3.61,4.62-.74,1.72-1.01,3.46-.8,5.21.21,1.75.89,3.34,2.06,4.76.64.78,1.36,1.4,2.16,1.86s1.59.78,2.37.98c.59.15,1.11.21,1.61.23-.53.44-.83.97-.9,1.61-.07.64.11,1.23.54,1.77.44.53.98.83,1.62.89.65.06,1.24-.13,1.77-.57l19.09-15.58c.56-.45.87-1,.93-1.63ZM222.41,60.72c-.47,1.02-1.2,1.93-2.19,2.74-.97.79-2,1.31-3.09,1.57-1.09.26-2.14.23-3.15-.08-1.01-.31-1.88-.92-2.62-1.82-.72-.89-1.14-1.85-1.24-2.9-.1-1.05.08-2.08.55-3.1.47-1.02,1.19-1.92,2.16-2.71.99-.81,2.03-1.34,3.12-1.6,1.09-.26,2.14-.23,3.15.08,1.01.31,1.87.91,2.6,1.79.74.91,1.16,1.88,1.26,2.93.1,1.05-.08,2.08-.55,3.1Z"/>
    <path d="M240.36,75.12c-.8-1.56-1.96-2.83-3.48-3.82-1.52-.98-3.25-1.52-5.2-1.61-1.95-.09-3.98.41-6.11,1.5-1.82.93-3.25,2.17-4.29,3.7-1.04,1.53-1.6,3.25-1.68,5.16-.08,1.91.39,3.87,1.43,5.88.61,1.18,1.39,2.23,2.35,3.14.96.91,1.86,1.54,2.69,1.89.86.4,1.61.43,2.25.1.47-.24.8-.63.98-1.15s.13-1.05-.13-1.57c-.19-.38-.51-.73-.94-1.04-.28-.19-.6-.39-.96-.61s-.75-.55-1.16-1-.84-1.11-1.29-1.98c-.49-.95-.71-1.96-.68-3.03.03-1.08.35-2.11.97-3.1.36-.57.84-1.09,1.42-1.55l6,11.7c.29.57.72.97,1.3,1.22.57.24,1.15.23,1.73-.04,1.28-.66,2.36-1.52,3.25-2.58.89-1.07,1.55-2.24,1.99-3.51.44-1.27.63-2.57.58-3.9-.06-1.33-.39-2.6-1.01-3.81ZM236.59,81.74c-.32.72-.81,1.27-1.47,1.67l-.25.13-4.77-9.29c.32-.09.63-.17.92-.21.89-.13,1.68-.08,2.36.14.68.22,1.27.59,1.78,1.11.5.52.94,1.13,1.3,1.84.38.73.57,1.51.59,2.32.01.81-.14,1.58-.46,2.3Z"/>
  </g>
  <g>
    <path d="M14.98,167.75c.68-.13,1.2-.47,1.57-1,.37-.53.49-1.14.35-1.82l-1.26-6.42c-.13-.68-.47-1.2-1-1.57-.53-.37-1.14-.49-1.82-.35-.68.13-1.19.47-1.55,1.02-.35.54-.46,1.15-.33,1.83l.72,3.68-5.07,1c-.3-.5-.6-1.12-.87-1.86-.34-.91-.59-1.75-.74-2.54-.33-1.7-.21-3.32.36-4.89.57-1.56,1.5-2.9,2.77-4,1.27-1.1,2.76-1.82,4.45-2.15,1.72-.34,3.37-.24,4.96.31s2.94,1.43,4.06,2.66c1.12,1.23,1.85,2.69,2.18,4.39.16.81.23,1.59.22,2.36-.01.76-.1,1.5-.26,2.2-.06.23-.1.46-.11.69,0,.23,0,.45.05.66.13.65.48,1.14,1.06,1.46.58.32,1.18.42,1.81.3.37-.07.7-.24,1.02-.5s.54-.61.67-1.05c.33-1.07.52-2.2.55-3.4.04-1.2-.07-2.41-.31-3.64-.39-1.98-1.12-3.76-2.19-5.34s-2.38-2.89-3.92-3.94c-1.55-1.05-3.24-1.78-5.08-2.19-1.84-.41-3.74-.42-5.7-.04-1.96.38-3.71,1.11-5.26,2.19-1.55,1.08-2.84,2.39-3.88,3.95-1.03,1.56-1.75,3.27-2.14,5.13s-.39,3.79,0,5.77c.31,1.56.82,3.02,1.53,4.35.71,1.34,1.55,2.53,2.51,3.59.27.27.6.5.99.68.39.18.84.22,1.36.12l8.3-1.63Z"/>
    <path d="M20.76,176.84c.75-.04,1.42.03,2.02.23.6.19,1.1.47,1.5.84.4.37.69.77.88,1.21.21.49.3.96.29,1.41-.01.45.08.91.28,1.38.21.49.58.87,1.11,1.13.53.27,1.2.23,2.01-.11.56-.24.95-.7,1.15-1.37.2-.68.15-1.38-.16-2.12-.26-.61-.59-1.19-1-1.74-.41-.55-.88-1.03-1.41-1.44-.53-.41-1.12-.73-1.75-.97-.46-.17-.94-.27-1.43-.33l.53-.22c.64-.27,1.08-.7,1.33-1.3.25-.6.25-1.21-.02-1.85-.27-.64-.71-1.07-1.31-1.31-.6-.24-1.23-.22-1.86.05l-15.17,6.41c-.64.27-1.08.7-1.33,1.3-.25.6-.24,1.21.02,1.85.27.64.7,1.07,1.31,1.31.6.24,1.22.22,1.86-.05l8.71-3.68c.88-.37,1.7-.58,2.44-.62Z"/>
    <path d="M36.8,186.64c.44.21.99.12,1.66-.26l.66-.38c.65-.37,1-.79,1.07-1.26.07-.47-.13-1.11-.59-1.91-.42-.74-.86-1.22-1.31-1.44-.45-.22-1.01-.14-1.67.25l-.66.38c-.65.37-1,.79-1.07,1.26-.07.47.12,1.09.57,1.88s.89,1.28,1.34,1.49Z"/>
    <path d="M33.48,188.31c.18-.62.1-1.24-.25-1.83-.34-.6-.83-.98-1.46-1.14-.63-.16-1.24-.07-1.84.27l-14.29,8.2c-.6.34-.99.83-1.17,1.45-.18.62-.1,1.23.25,1.83.34.6.83.98,1.46,1.14.63.16,1.24.07,1.84-.28l14.29-8.2c.6-.34.99-.83,1.17-1.45Z"/>
    <path d="M43.01,210.58c.66-1.22,1.09-2.49,1.28-3.83.18-1.33.12-2.65-.19-3.94-.31-1.3-.89-2.48-1.73-3.54-1.09-1.38-2.47-2.4-4.15-3.07-1.68-.67-3.48-.87-5.41-.58s-3.83,1.17-5.71,2.65c-1.61,1.27-2.77,2.75-3.49,4.46-.72,1.7-.94,3.5-.65,5.39.29,1.89,1.13,3.72,2.53,5.49.82,1.04,1.79,1.92,2.91,2.63,1.12.71,2.12,1.15,3.01,1.33.92.22,1.66.11,2.23-.33.42-.33.66-.77.74-1.32.07-.55-.07-1.05-.43-1.51-.26-.33-.64-.61-1.12-.84-.31-.13-.66-.27-1.06-.41s-.84-.39-1.33-.75c-.49-.36-1.04-.93-1.65-1.7-.66-.83-1.08-1.78-1.25-2.84-.18-1.06-.06-2.14.35-3.22.24-.63.62-1.23,1.1-1.79l8.14,10.33c.4.5.9.82,1.51.94s1.17,0,1.69-.37c1.13-.89,2.02-1.94,2.69-3.16ZM39.94,206.5c-.18.76-.55,1.41-1.12,1.93l-.22.17-6.47-8.2c.3-.15.59-.29.87-.38.85-.3,1.63-.4,2.34-.32.71.08,1.36.33,1.96.74.59.41,1.14.93,1.63,1.56.51.65.85,1.37,1.02,2.16.17.8.17,1.58,0,2.34Z"/>
    <path d="M57.24,221.11c.12.31.2.61.24.89.04.28.13.55.26.83s.36.55.69.82c.47.4.97.52,1.51.38.54-.15.99-.42,1.33-.83.52-.61.73-1.33.62-2.17-.1-.84-.48-1.75-1.13-2.73-.65-.98-1.55-1.96-2.71-2.94-1.56-1.33-3.24-2.15-5.06-2.46s-3.6-.12-5.36.56c-1.76.68-3.34,1.86-4.76,3.51-1.35,1.58-2.25,3.27-2.7,5.09s-.41,3.6.14,5.34c.54,1.74,1.61,3.29,3.21,4.65,1.07.92,2.18,1.64,3.31,2.17,1.14.53,2.16.83,3.08.9.92.07,1.6-.15,2.03-.65.41-.48.62-1.02.62-1.59s-.26-1.09-.79-1.54c-.44-.38-.86-.57-1.23-.58-.38,0-.78-.05-1.2-.13-.35-.09-.73-.25-1.14-.5-.41-.25-.88-.59-1.38-1.02-.91-.78-1.52-1.69-1.84-2.73-.32-1.04-.35-2.11-.1-3.2.25-1.1.79-2.13,1.62-3.1.85-.99,1.79-1.7,2.82-2.13,1.03-.43,2.1-.56,3.19-.39,1.1.17,2.16.69,3.19,1.57.2.17.48.47.83.9.35.42.58.78.68,1.08Z"/>
    <path d="M75.95,227.36c-.77-.43-1.54-.7-2.33-.82s-1.56-.13-2.31-.03c-.75.1-1.44.27-2.07.51-.22.09-.41.18-.61.27l4.31-7.72c.34-.6.42-1.22.25-1.84-.17-.63-.55-1.11-1.16-1.44-.6-.34-1.22-.41-1.84-.23-.62.19-1.1.58-1.44,1.18l-12.01,21.52c-.34.6-.42,1.22-.25,1.85.17.63.55,1.11,1.16,1.44s1.22.41,1.84.23c.62-.19,1.1-.58,1.44-1.18l4.97-8.92c.43-.77.97-1.37,1.63-1.81.66-.44,1.4-.67,2.24-.69.83-.02,1.69.21,2.57.71.91.51,1.5,1.08,1.78,1.72.28.64.34,1.33.18,2.04-.16.72-.45,1.46-.88,2.23l-4.97,8.92c-.34.6-.42,1.22-.25,1.84.17.63.55,1.11,1.16,1.44s1.22.41,1.84.23c.62-.18,1.1-.58,1.44-1.18l4.97-8.92c.82-1.46,1.4-2.88,1.74-4.26.34-1.38.28-2.67-.19-3.87-.47-1.21-1.54-2.28-3.21-3.21Z"/>
    <path d="M100.51,240.16c-.61-1.2-1.4-2.24-2.4-3.13-.99-.89-2.14-1.53-3.43-1.93-1.68-.51-3.4-.57-5.16-.16-1.77.41-3.36,1.27-4.78,2.6s-2.48,3.14-3.18,5.43c-.6,1.96-.71,3.84-.33,5.65.38,1.81,1.22,3.41,2.53,4.8,1.31,1.39,3.05,2.41,5.21,3.08,1.27.39,2.57.56,3.89.5,1.32-.05,2.4-.26,3.23-.62.88-.34,1.43-.85,1.64-1.54.16-.51.11-1.01-.14-1.5-.25-.49-.66-.83-1.22-1-.41-.12-.87-.14-1.4-.05-.33.07-.69.16-1.1.27-.41.11-.92.16-1.52.14s-1.38-.17-2.32-.46c-1.02-.31-1.9-.85-2.65-1.62-.75-.77-1.27-1.72-1.55-2.85-.16-.66-.19-1.36-.12-2.1l12.57,3.85c.61.19,1.2.16,1.78-.08.57-.24.97-.66,1.18-1.27.42-1.37.56-2.75.41-4.13-.15-1.38-.52-2.67-1.13-3.87ZM89.13,239.44c.63-.33,1.31-.5,2.03-.5.72,0,1.47.11,2.23.35.79.24,1.48.64,2.07,1.2.59.56,1.04,1.2,1.33,1.93.29.73.35,1.47.17,2.22l-.08.27-9.99-3.06c.16-.29.32-.57.49-.81.53-.73,1.11-1.26,1.74-1.59Z"/>
    <path d="M123.13,241.12c-.95-.91-2.41-1.44-4.37-1.61-.9-.08-1.75,0-2.54.21s-1.51.52-2.16.92c-.65.4-1.22.84-1.71,1.32-.18.18-.33.34-.48.51l.06-.69c.06-.69-.12-1.28-.53-1.79-.41-.5-.96-.78-1.65-.84-.69-.06-1.28.13-1.77.55s-.76.98-.82,1.67l-1.39,16.41c-.06.69.12,1.28.53,1.79.41.5.96.78,1.65.84.69.06,1.28-.13,1.77-.55s.76-.98.82-1.67l.86-10.17c.07-.87.33-1.65.78-2.32.44-.67,1.05-1.19,1.81-1.55.76-.36,1.68-.5,2.74-.41,1.09.09,1.9.37,2.45.85.55.47.9,1.07,1.07,1.79.17.72.21,1.52.14,2.39l-.86,10.17c-.06.69.12,1.28.53,1.79.41.5.96.78,1.65.84.69.06,1.28-.13,1.77-.55.49-.42.76-.98.82-1.67l.86-10.17c.14-1.67.08-3.2-.19-4.6-.27-1.4-.88-2.55-1.83-3.46Z"/>
    <path d="M134.47,232.27c-.47-.43-1.05-.63-1.74-.58-.69.05-1.25.32-1.68.82-.43.5-.62,1.09-.58,1.78l1.7,24.59c.05.69.31,1.25.8,1.68.48.43,1.06.63,1.72.58.69-.05,1.25-.32,1.68-.82.43-.5.62-1.09.58-1.78l-1.7-24.59c-.05-.69-.31-1.25-.78-1.68Z"/>
    <path d="M160.24,237.03c-.16-.7-.52-1.22-1.06-1.55s-1.15-.43-1.82-.27c-.67.16-1.18.52-1.51,1.07s-.42,1.17-.26,1.84v.06c-.27-.16-.56-.32-.89-.46-.81-.36-1.72-.59-2.73-.71-1.01-.12-2.07-.05-3.18.22-1.73.41-3.21,1.24-4.41,2.49-1.21,1.25-2.04,2.79-2.5,4.6-.46,1.81-.44,3.78.05,5.91.49,2.1,1.35,3.86,2.57,5.28,1.22,1.42,2.66,2.42,4.33,3,1.66.58,3.39.66,5.18.24.98-.23,1.86-.61,2.62-1.13s1.4-1.09,1.92-1.7c.39-.46.68-.91.91-1.35.16.67.51,1.17,1.05,1.52.55.35,1.16.44,1.83.29.67-.16,1.18-.51,1.51-1.07.33-.56.42-1.17.26-1.84l-3.85-16.42ZM157.81,249.97c-.25,1.1-.73,2.03-1.45,2.8-.72.77-1.65,1.29-2.79,1.56-1.11.26-2.16.21-3.15-.16-.99-.37-1.84-.99-2.55-1.86-.71-.87-1.21-1.91-1.49-3.13-.29-1.24-.31-2.41-.06-3.51.25-1.1.73-2.03,1.45-2.8.72-.77,1.64-1.29,2.75-1.55,1.14-.27,2.2-.22,3.19.15.99.37,1.84.99,2.55,1.86s1.21,1.93,1.5,3.17c.29,1.22.3,2.37.06,3.47Z"/>
    <path d="M184.39,233.23c-.73-1.51-1.57-2.79-2.51-3.85-.94-1.06-2.06-1.74-3.34-2.04-1.28-.29-2.81-.01-4.57.85-.81.4-1.51.89-2.08,1.47s-1.03,1.22-1.39,1.89-.62,1.34-.8,2.01c-.07.24-.11.47-.15.69l-.3-.62c-.3-.62-.76-1.04-1.37-1.26s-1.23-.18-1.85.12c-.62.3-1.03.76-1.24,1.38-.2.62-.15,1.24.15,1.86l7.19,14.82c.3.62.76,1.04,1.37,1.26.61.22,1.23.18,1.85-.12.62-.3,1.03-.76,1.24-1.38.2-.62.15-1.23-.15-1.86l-4.46-9.18c-.38-.79-.56-1.59-.52-2.39.04-.8.3-1.55.77-2.26.47-.7,1.19-1.29,2.14-1.75.98-.48,1.83-.65,2.54-.52.71.13,1.32.46,1.83.99.51.54.96,1.2,1.34,1.99l4.46,9.18c.3.62.76,1.04,1.37,1.26.61.22,1.22.18,1.85-.12s1.03-.76,1.24-1.38.15-1.23-.15-1.86l-4.46-9.18Z"/>
    <path d="M196.15,206.39c-.45-.56-.99-.88-1.62-.95-.63-.07-1.22.11-1.76.54-.54.43-.84.97-.91,1.61s.12,1.24.55,1.78l4.88,6.14c-.32-.03-.66-.05-1.02-.04-.88.02-1.81.2-2.77.52-.96.33-1.89.84-2.79,1.55-1.39,1.11-2.37,2.49-2.93,4.14-.56,1.65-.66,3.39-.3,5.23.36,1.84,1.22,3.61,2.57,5.32,1.34,1.69,2.87,2.91,4.58,3.67,1.71.76,3.44,1.05,5.2.86,1.75-.19,3.35-.85,4.78-1.99.79-.63,1.42-1.34,1.89-2.14.47-.8.8-1.58,1.01-2.35.15-.59.22-1.11.25-1.61.43.53.96.84,1.6.92.64.08,1.24-.09,1.78-.52.54-.43.84-.97.91-1.61.06-.64-.12-1.24-.55-1.78l-15.34-19.29ZM204.2,228.37c-.32,1-.94,1.87-1.86,2.6-.9.71-1.87,1.11-2.92,1.2-1.05.09-2.08-.11-3.1-.59-1.01-.48-1.91-1.22-2.69-2.19-.79-1-1.31-2.05-1.56-3.14-.24-1.1-.2-2.15.12-3.15.32-1,.93-1.86,1.83-2.57.92-.73,1.9-1.14,2.95-1.22,1.05-.09,2.08.11,3.1.59,1.01.48,1.92,1.23,2.71,2.22.78.98,1.29,2.02,1.53,3.11.24,1.1.2,2.15-.12,3.15Z"/>
    <path d="M234.32,194.46c-.44-.29-.94-.39-1.48-.29s-.98.4-1.3.89c-.23.36-.38.8-.45,1.33-.03.33-.05.71-.05,1.13,0,.42-.11.92-.3,1.5-.19.58-.55,1.28-1.1,2.1-.59.89-1.35,1.58-2.31,2.09-.95.5-2.01.73-3.17.68-.68-.03-1.36-.2-2.05-.48l7.24-10.98c.35-.53.49-1.11.42-1.73-.07-.62-.36-1.11-.88-1.49-1.2-.79-2.48-1.31-3.85-1.56-1.37-.25-2.71-.25-4.03,0-1.32.24-2.55.72-3.68,1.42-1.13.7-2.07,1.62-2.82,2.75-.97,1.47-1.5,3.1-1.61,4.91-.11,1.81.27,3.58,1.15,5.32.88,1.74,2.31,3.27,4.31,4.58,1.71,1.13,3.49,1.77,5.33,1.91,1.84.15,3.62-.21,5.32-1.08,1.7-.87,3.17-2.25,4.42-4.13.73-1.11,1.26-2.31,1.58-3.59.32-1.28.43-2.38.32-3.28-.08-.94-.42-1.61-1.02-2.01ZM217.22,196.27c.2-.69.52-1.37.96-2.04.45-.69,1.03-1.24,1.73-1.65s1.44-.66,2.23-.73c.78-.07,1.51.08,2.18.46l.23.15-5.75,8.72c-.24-.23-.46-.47-.64-.7-.55-.71-.9-1.42-1.04-2.12-.14-.7-.11-1.4.09-2.09Z"/>
    <path d="M240.82,183.72l-.62-.28c-.7-.32-1.32-.38-1.87-.18s-.98.65-1.31,1.35l-.22.47c-.32.7-.38,1.32-.18,1.87s.65.98,1.35,1.31l.62.28c.7.32,1.32.39,1.87.18s.98-.65,1.31-1.35l.22-.47c.32-.7.39-1.32.18-1.87-.2-.55-.65-.98-1.35-1.31Z"/>
    <path d="M248.3,164.51l-19.67-15.54c-.32-.25-.64-.42-.98-.51-.64-.17-1.24-.08-1.79.28-.55.36-.92.86-1.09,1.5-.26.98.03,1.81.89,2.51l16.27,12.01-20.28,2.8c-1.12.17-1.81.74-2.07,1.71-.13.49-.07,1.05.18,1.7.25.65.75,1.07,1.49,1.27.15.04.32.07.49.09.17.02.35.01.52-.02l24.9-3.46c.52-.08.95-.28,1.3-.6.35-.32.59-.68.73-1.08.12-.44.11-.9-.02-1.39-.13-.49-.42-.92-.87-1.29Z"/>
    <path d="M252.6,143.94c-.37-.45-.94-.71-1.71-.79l-.67-.07c-.77-.07-1.38.07-1.83.44-.45.37-.71.94-.79,1.71l-.05.52c-.07.77.07,1.38.44,1.83.37.45.94.71,1.71.79l.67.07c.77.07,1.38-.07,1.83-.44.45-.37.71-.94.79-1.71l.05-.52c.07-.77-.07-1.38-.44-1.83Z"/>
  </g>
  <path d="M8.24,135.53c-1.1,0-1.99-.89-1.99-1.99,0-13.07,2.1-25.91,6.23-38.18.35-1.04,1.48-1.61,2.53-1.25,1.04.35,1.6,1.48,1.25,2.53-3.99,11.86-6.02,24.27-6.02,36.91,0,1.1-.89,1.99-1.99,1.99Z"/>
  <path d="M243.07,128.65c-1.05,0-1.93-.82-1.99-1.88-.59-10.29-2.55-20.43-5.83-30.14-.35-1.04.21-2.18,1.25-2.53,1.05-.35,2.18.21,2.53,1.25,3.38,10.05,5.41,20.54,6.03,31.18.06,1.1-.78,2.04-1.88,2.11-.04,0-.08,0-.12,0Z"/>
</svg>