<?xml version="1.0" encoding="UTF-8"?>
<svg id="Ebene_1" xmlns="http://www.w3.org/2000/svg" viewBox="0 0 700 300">
  <defs>
    <style>
      .cls-1 {
        fill: #232323;
      }

      .cls-2 {
        fill: #ff7863;
      }
    </style>
  </defs>
  <g>
    <path class="cls-1" d="M226.15,100.1c.76,0,1.44.28,2.04.84.6.56.9,1.26.9,2.1v32.24c-.04.84-.35,1.53-.95,2.1-.6.56-1.3.84-2.1.84-.91,0-1.63-.28-2.18-.84-.54-.56-.82-1.26-.82-2.1v-32.24c0-.83.29-1.53.87-2.1.58-.56,1.33-.84,2.23-.84ZM225.93,116.22h24.67v5.56h-24.73l.05-5.56ZM250.6,100.1c.91,0,1.63.28,2.18.84.54.56.82,1.26.82,2.1v32.24c0,.84-.28,1.53-.84,2.1-.56.56-1.32.84-2.26.84-.76,0-1.44-.28-2.02-.84-.58-.56-.87-1.26-.87-2.1v-32.24c0-.83.3-1.53.9-2.1.6-.56,1.3-.84,2.1-.84Z"/>
    <path class="cls-1" d="M274.84,138.77c-3.05,0-5.69-.63-7.92-1.91-2.23-1.27-3.96-3-5.17-5.2-1.22-2.2-1.82-4.69-1.82-7.49,0-3.23.65-5.99,1.96-8.28,1.31-2.29,3-4.04,5.09-5.26,2.09-1.22,4.31-1.82,6.67-1.82,1.78,0,3.48.36,5.09,1.09,1.62.73,3.05,1.73,4.3,3,1.25,1.27,2.25,2.76,3,4.47.74,1.71,1.12,3.56,1.12,5.56-.04.76-.35,1.39-.93,1.88-.58.49-1.25.74-2.02.74h-21.02l-1.42-4.85h20.32l-1.04.98v-1.36c-.11-1.23-.54-2.31-1.28-3.21-.75-.91-1.65-1.62-2.72-2.15-1.07-.53-2.21-.79-3.4-.79-1.09,0-2.13.16-3.13.49-1,.33-1.87.86-2.61,1.61s-1.33,1.72-1.77,2.94c-.44,1.22-.65,2.75-.65,4.6,0,2,.41,3.72,1.23,5.17.82,1.45,1.92,2.57,3.3,3.35,1.38.78,2.9,1.17,4.58,1.17,1.31,0,2.39-.13,3.24-.38.85-.25,1.56-.57,2.12-.95.56-.38,1.04-.74,1.44-1.06.62-.33,1.18-.49,1.69-.49.73,0,1.32.25,1.77.74.45.49.68,1.06.68,1.72,0,.83-.42,1.6-1.25,2.29-.98.91-2.33,1.71-4.06,2.4s-3.51,1.04-5.37,1.04Z"/>
    <path class="cls-1" d="M295.75,138.23c-.84,0-1.53-.28-2.07-.84-.54-.56-.82-1.26-.82-2.1v-22.93c0-.83.27-1.53.82-2.1.54-.56,1.23-.84,2.07-.84s1.52.28,2.07.84c.54.56.82,1.26.82,2.1v5.88l-.49-2.78c.33-.94.8-1.82,1.42-2.64.62-.82,1.33-1.53,2.15-2.12.82-.6,1.72-1.06,2.72-1.39,1-.33,2.02-.49,3.08-.49.98,0,1.83.27,2.53.82s1.06,1.2,1.06,1.96c0,1.05-.26,1.82-.79,2.29-.53.47-1.12.71-1.77.71-.62,0-1.18-.12-1.69-.35-.51-.24-1.13-.35-1.85-.35s-1.47.19-2.23.57c-.76.38-1.45.94-2.07,1.66-.62.73-1.12,1.61-1.5,2.64-.38,1.04-.57,2.21-.57,3.51v13.02c0,.84-.27,1.53-.82,2.1-.54.56-1.24.84-2.07.84Z"/>
    <path class="cls-1" d="M334.15,132.94c.8,0,1.45.25,1.96.76.51.51.76,1.13.76,1.85,0,.76-.25,1.4-.76,1.91s-1.16.76-1.96.76h-17.54c-.83,0-1.49-.29-1.96-.87-.47-.58-.69-1.16-.65-1.74,0-.47.05-.89.16-1.25.11-.36.34-.78.71-1.25l14.27-18.79-.05.71h-11.82c-.76,0-1.4-.26-1.91-.79-.51-.53-.76-1.15-.76-1.88,0-.76.25-1.39.76-1.88.51-.49,1.14-.74,1.91-.74h16.78c.73,0,1.35.27,1.88.82.53.54.75,1.24.68,2.07-.04.33-.09.64-.16.95-.07.31-.29.68-.65,1.12l-14.05,18.57-.16-.33h12.58Z"/>
    <path class="cls-1" d="M354.85,138.77c-3.05,0-5.69-.63-7.92-1.91-2.23-1.27-3.96-3-5.17-5.2-1.22-2.2-1.82-4.69-1.82-7.49,0-3.23.65-5.99,1.96-8.28,1.31-2.29,3-4.04,5.09-5.26,2.09-1.22,4.31-1.82,6.67-1.82,1.78,0,3.48.36,5.09,1.09,1.62.73,3.05,1.73,4.3,3,1.25,1.27,2.25,2.76,3,4.47.74,1.71,1.12,3.56,1.12,5.56-.04.76-.35,1.39-.93,1.88-.58.49-1.25.74-2.02.74h-21.02l-1.42-4.85h20.32l-1.04.98v-1.36c-.11-1.23-.54-2.31-1.28-3.21-.75-.91-1.65-1.62-2.72-2.15-1.07-.53-2.21-.79-3.4-.79-1.09,0-2.13.16-3.13.49-1,.33-1.87.86-2.61,1.61s-1.33,1.72-1.77,2.94c-.44,1.22-.65,2.75-.65,4.6,0,2,.41,3.72,1.23,5.17.82,1.45,1.92,2.57,3.3,3.35,1.38.78,2.9,1.17,4.58,1.17,1.31,0,2.39-.13,3.24-.38.85-.25,1.56-.57,2.12-.95.56-.38,1.04-.74,1.44-1.06.62-.33,1.18-.49,1.69-.49.73,0,1.32.25,1.77.74.45.49.68,1.06.68,1.72,0,.83-.42,1.6-1.25,2.29-.98.91-2.33,1.71-4.06,2.4s-3.51,1.04-5.37,1.04Z"/>
    <path class="cls-1" d="M387.91,108.81c2.61,0,4.62.54,6.02,1.63,1.4,1.09,2.37,2.54,2.91,4.36.54,1.82.82,3.83.82,6.04v14.43c0,.84-.27,1.53-.82,2.1-.54.56-1.22.84-2.02.84s-1.53-.28-2.07-.84c-.54-.56-.82-1.26-.82-2.1v-14.38c0-1.27-.17-2.41-.52-3.43-.35-1.02-.95-1.83-1.82-2.45-.87-.62-2.09-.93-3.65-.93-1.45,0-2.72.31-3.81.93-1.09.62-1.94,1.43-2.56,2.45-.62,1.02-.93,2.16-.93,3.43v14.38c0,.84-.27,1.53-.82,2.1-.54.56-1.24.84-2.07.84s-1.53-.28-2.07-.84c-.54-.56-.82-1.26-.82-2.1v-22.93c0-.83.27-1.53.82-2.1.54-.56,1.23-.84,2.07-.84s1.52.28,2.07.84c.54.56.82,1.26.82,2.1v2.89l-.93.33c.25-.73.7-1.49,1.33-2.29.63-.8,1.4-1.53,2.29-2.21.89-.67,1.89-1.22,3-1.63,1.11-.42,2.3-.63,3.57-.63Z"/>
    <path class="cls-1" d="M403.49,133.76c-.36-.51-.53-1.12-.49-1.83s.45-1.32,1.25-1.82c.51-.33,1.06-.46,1.66-.41.6.05,1.17.35,1.72.9,1.02,1.09,2.13,1.95,3.35,2.59,1.22.64,2.71.95,4.49.95.69-.04,1.4-.14,2.12-.33.73-.18,1.35-.53,1.88-1.03.53-.51.79-1.25.79-2.23,0-.87-.28-1.57-.84-2.1-.56-.53-1.31-.96-2.23-1.31-.93-.34-1.95-.66-3.08-.95-1.13-.33-2.28-.69-3.46-1.09-1.18-.4-2.25-.92-3.21-1.55-.96-.63-1.74-1.47-2.34-2.5-.6-1.04-.9-2.32-.9-3.84,0-1.74.49-3.23,1.47-4.47.98-1.23,2.25-2.2,3.81-2.89,1.56-.69,3.23-1.03,5.01-1.03,1.09,0,2.23.14,3.43.41s2.34.7,3.43,1.28c1.09.58,2.03,1.36,2.83,2.34.36.47.57,1.05.63,1.74.05.69-.25,1.31-.9,1.85-.51.4-1.08.57-1.72.52-.64-.05-1.17-.28-1.61-.68-.65-.83-1.52-1.49-2.59-1.96-1.07-.47-2.3-.71-3.68-.71-.65,0-1.33.08-2.04.25-.71.16-1.32.49-1.83.98-.51.49-.76,1.21-.76,2.15.04.91.34,1.62.9,2.15.56.53,1.33.96,2.31,1.31.98.35,2.03.66,3.16.95,1.09.29,2.19.64,3.29,1.04s2.12.92,3.05,1.55c.93.64,1.67,1.46,2.23,2.48.56,1.02.84,2.29.84,3.81,0,1.82-.53,3.36-1.58,4.63-1.05,1.27-2.38,2.23-3.98,2.89-1.6.65-3.25.98-4.96.98-2.11,0-4.19-.37-6.26-1.12-2.07-.74-3.81-2.04-5.23-3.89Z"/>
    <path class="cls-1" d="M445.91,108.92c2.54,0,4.49.54,5.86,1.63,1.36,1.09,2.31,2.55,2.86,4.38.54,1.83.82,3.86.82,6.07v14.27c0,.84-.27,1.53-.82,2.1-.54.56-1.22.84-2.02.84s-1.52-.28-2.07-.84c-.54-.56-.82-1.26-.82-2.1v-14.27c0-1.27-.16-2.42-.49-3.43-.33-1.02-.91-1.83-1.74-2.45-.84-.62-2-.93-3.49-.93-1.38,0-2.61.31-3.68.93-1.07.62-1.9,1.44-2.48,2.45-.58,1.02-.87,2.16-.87,3.43v14.27c0,.84-.27,1.53-.82,2.1-.54.56-1.24.84-2.07.84s-1.53-.28-2.07-.84c-.54-.56-.82-1.26-.82-2.1v-34.42c0-.83.27-1.53.82-2.1s1.23-.84,2.07-.84,1.52.28,2.07.84.82,1.26.82,2.1v14.49l-.93.33c.25-.73.68-1.49,1.28-2.29.6-.8,1.33-1.53,2.21-2.21.87-.67,1.84-1.22,2.91-1.63,1.07-.42,2.22-.63,3.46-.63Z"/>
    <path class="cls-1" d="M484.37,109.41c.83,0,1.52.28,2.04.84.53.56.79,1.26.79,2.1v14.22c0,3.78-1.05,6.75-3.16,8.9-2.11,2.16-5.1,3.24-8.99,3.24s-6.88-1.08-8.99-3.24c-2.11-2.16-3.16-5.13-3.16-8.9v-14.22c0-.83.27-1.53.82-2.1.54-.56,1.23-.84,2.07-.84s1.52.28,2.07.84c.54.56.82,1.26.82,2.1v14.22c0,2.29.54,4,1.61,5.15,1.07,1.14,2.66,1.72,4.77,1.72s3.7-.57,4.79-1.72c1.09-1.14,1.63-2.86,1.63-5.15v-14.22c0-.83.27-1.53.82-2.1.54-.56,1.23-.84,2.07-.84Z"/>
    <path class="cls-1" d="M509.69,108.81c2.61,0,4.62.54,6.02,1.63,1.4,1.09,2.37,2.54,2.91,4.36.54,1.82.82,3.83.82,6.04v14.43c0,.84-.27,1.53-.82,2.1-.54.56-1.22.84-2.02.84s-1.53-.28-2.07-.84c-.54-.56-.82-1.26-.82-2.1v-14.38c0-1.27-.17-2.41-.52-3.43-.35-1.02-.95-1.83-1.82-2.45-.87-.62-2.09-.93-3.65-.93-1.45,0-2.72.31-3.81.93-1.09.62-1.94,1.43-2.56,2.45-.62,1.02-.93,2.16-.93,3.43v14.38c0,.84-.27,1.53-.82,2.1-.54.56-1.24.84-2.07.84s-1.53-.28-2.07-.84c-.54-.56-.82-1.26-.82-2.1v-22.93c0-.83.27-1.53.82-2.1.54-.56,1.23-.84,2.07-.84s1.52.28,2.07.84c.54.56.82,1.26.82,2.1v2.89l-.93.33c.25-.73.7-1.49,1.33-2.29.63-.8,1.4-1.53,2.29-2.21.89-.67,1.89-1.22,3-1.63,1.11-.42,2.3-.63,3.57-.63Z"/>
    <path class="cls-1" d="M550.27,97.92c.83,0,1.53.27,2.07.82s.82,1.25.82,2.12v34.42c0,.84-.27,1.53-.82,2.1-.54.56-1.24.84-2.07.84s-1.53-.28-2.07-.84c-.54-.56-.82-1.26-.82-2.1v-3.54l1.14.16c0,.62-.26,1.32-.79,2.1-.53.78-1.24,1.52-2.12,2.23-.89.71-1.94,1.31-3.16,1.8-1.22.49-2.53.74-3.95.74-2.5,0-4.76-.64-6.75-1.93s-3.59-3.06-4.77-5.31c-1.18-2.25-1.77-4.81-1.77-7.68s.59-5.54,1.77-7.79c1.18-2.25,2.76-4.02,4.74-5.31s4.18-1.93,6.62-1.93c1.53,0,2.95.25,4.28.74,1.33.49,2.48,1.12,3.46,1.91s1.74,1.6,2.29,2.45c.54.85.82,1.64.82,2.37l-1.8.33v-15.74c0-.83.27-1.53.82-2.1.54-.56,1.23-.84,2.07-.84ZM539.16,133.49c1.71,0,3.2-.43,4.47-1.28,1.27-.85,2.26-2.01,2.97-3.46.71-1.45,1.06-3.09,1.06-4.9s-.35-3.56-1.06-5.01c-.71-1.45-1.7-2.61-2.97-3.46-1.27-.85-2.76-1.28-4.47-1.28s-3.09.43-4.36,1.28c-1.27.85-2.26,2.01-2.97,3.46s-1.06,3.12-1.06,5.01.35,3.45,1.06,4.9,1.7,2.61,2.97,3.46c1.27.85,2.72,1.28,4.36,1.28Z"/>
    <path class="cls-1" d="M573.8,138.77c-3.05,0-5.69-.63-7.92-1.91-2.23-1.27-3.96-3-5.17-5.2-1.22-2.2-1.82-4.69-1.82-7.49,0-3.23.65-5.99,1.96-8.28,1.31-2.29,3-4.04,5.09-5.26,2.09-1.22,4.31-1.82,6.67-1.82,1.78,0,3.48.36,5.09,1.09,1.62.73,3.05,1.73,4.3,3,1.25,1.27,2.25,2.76,3,4.47.74,1.71,1.12,3.56,1.12,5.56-.04.76-.35,1.39-.93,1.88-.58.49-1.25.74-2.02.74h-21.02l-1.42-4.85h20.32l-1.04.98v-1.36c-.11-1.23-.54-2.31-1.28-3.21-.75-.91-1.65-1.62-2.72-2.15-1.07-.53-2.21-.79-3.4-.79-1.09,0-2.13.16-3.13.49-1,.33-1.87.86-2.61,1.61s-1.33,1.72-1.77,2.94c-.44,1.22-.65,2.75-.65,4.6,0,2,.41,3.72,1.23,5.17.82,1.45,1.92,2.57,3.3,3.35,1.38.78,2.9,1.17,4.58,1.17,1.31,0,2.39-.13,3.24-.38.85-.25,1.56-.57,2.12-.95.56-.38,1.04-.74,1.44-1.06.62-.33,1.18-.49,1.69-.49.73,0,1.32.25,1.77.74.45.49.68,1.06.68,1.72,0,.83-.42,1.6-1.25,2.29-.98.91-2.33,1.71-4.06,2.4s-3.51,1.04-5.37,1.04Z"/>
    <path class="cls-1" d="M240.85,197.13c-2.8,0-5.38-.5-7.76-1.5-2.38-1-4.48-2.4-6.29-4.19-1.82-1.8-3.23-3.88-4.25-6.24-1.02-2.36-1.52-4.92-1.52-7.68s.51-5.32,1.52-7.68c1.02-2.36,2.43-4.44,4.25-6.24,1.81-1.8,3.91-3.2,6.29-4.19,2.38-1,4.96-1.5,7.76-1.5,1.74,0,3.44.19,5.09.57,1.65.38,3.15.97,4.49,1.77.47.25.82.59,1.06,1.01.24.42.36.86.36,1.33,0,.76-.26,1.44-.76,2.04-.51.6-1.16.9-1.96.9-.25,0-.52-.04-.79-.11-.27-.07-.54-.16-.79-.27-.98-.47-2.04-.83-3.16-1.09s-2.31-.38-3.54-.38c-2.54,0-4.85.62-6.92,1.85-2.07,1.24-3.7,2.9-4.9,4.98s-1.8,4.42-1.8,7,.6,4.87,1.8,6.97c1.2,2.11,2.83,3.78,4.9,5.01,2.07,1.23,4.38,1.85,6.92,1.85,1.2,0,2.5-.14,3.9-.41,1.4-.27,2.55-.64,3.46-1.12l-.44,1.53v-10.08l.93.82h-6.86c-.84,0-1.54-.27-2.1-.82-.56-.54-.84-1.23-.84-2.07s.28-1.52.84-2.07c.56-.54,1.26-.82,2.1-.82h9.26c.84,0,1.53.28,2.07.84.54.56.82,1.26.82,2.1v11.93c0,.62-.14,1.14-.44,1.55-.29.42-.63.75-1.04,1.01-1.67,1.02-3.49,1.83-5.47,2.45-1.98.62-4.04.93-6.18.93Z"/>
    <path class="cls-1" d="M263.24,196.58c-.84,0-1.53-.28-2.07-.84-.54-.56-.82-1.26-.82-2.1v-22.93c0-.83.27-1.53.82-2.1.54-.56,1.23-.84,2.07-.84s1.52.28,2.07.84c.54.56.82,1.26.82,2.1v5.88l-.49-2.78c.33-.94.8-1.82,1.42-2.64.62-.82,1.33-1.53,2.15-2.12.82-.6,1.72-1.06,2.72-1.39,1-.33,2.02-.49,3.08-.49.98,0,1.83.27,2.53.82s1.06,1.2,1.06,1.96c0,1.05-.26,1.82-.79,2.29-.53.47-1.12.71-1.77.71-.62,0-1.18-.12-1.69-.35-.51-.24-1.13-.35-1.85-.35s-1.47.19-2.23.57c-.76.38-1.45.94-2.07,1.66-.62.73-1.12,1.61-1.5,2.64-.38,1.04-.57,2.21-.57,3.51v13.02c0,.84-.27,1.53-.82,2.1-.54.56-1.24.84-2.07.84Z"/>
    <path class="cls-1" d="M285.84,164.07c-1.13,0-1.92-.19-2.4-.57-.47-.38-.71-1.04-.71-1.99v-.93c0-.94.26-1.61.79-1.99.53-.38,1.32-.57,2.37-.57,1.12,0,1.93.2,2.42.6.49.4.74,1.05.74,1.96v.93c0,.95-.25,1.61-.76,1.99-.51.38-1.33.57-2.45.57ZM288.78,193.64c0,.84-.27,1.53-.82,2.1-.54.56-1.23.84-2.07.84s-1.53-.28-2.07-.84c-.54-.56-.82-1.26-.82-2.1v-23.09c0-.83.28-1.53.84-2.07.56-.54,1.24-.82,2.04-.82s1.53.27,2.07.82c.54.54.82,1.24.82,2.07v23.09Z"/>
    <path class="cls-1" d="M309.15,197.13c-3.05,0-5.69-.63-7.92-1.91-2.23-1.27-3.96-3-5.17-5.2-1.22-2.2-1.82-4.69-1.82-7.49,0-3.23.65-5.99,1.96-8.28,1.31-2.29,3-4.04,5.09-5.26,2.09-1.22,4.31-1.82,6.67-1.82,1.78,0,3.48.36,5.09,1.09,1.62.73,3.05,1.73,4.3,3,1.25,1.27,2.25,2.76,3,4.47.74,1.71,1.12,3.56,1.12,5.56-.04.76-.35,1.39-.93,1.88-.58.49-1.25.74-2.02.74h-21.02l-1.42-4.85h20.32l-1.04.98v-1.36c-.11-1.23-.54-2.31-1.28-3.21-.75-.91-1.65-1.62-2.72-2.15-1.07-.53-2.21-.79-3.4-.79-1.09,0-2.13.16-3.13.49-1,.33-1.87.86-2.61,1.61s-1.33,1.72-1.77,2.94c-.44,1.22-.65,2.75-.65,4.6,0,2,.41,3.72,1.23,5.17.82,1.45,1.92,2.57,3.3,3.35,1.38.78,2.9,1.17,4.58,1.17,1.31,0,2.39-.13,3.24-.38.85-.25,1.56-.57,2.12-.95.56-.38,1.04-.74,1.44-1.06.62-.33,1.18-.49,1.69-.49.73,0,1.32.25,1.77.74.45.49.68,1.06.68,1.72,0,.83-.42,1.6-1.25,2.29-.98.91-2.33,1.71-4.06,2.4s-3.51,1.04-5.37,1.04Z"/>
    <path class="cls-1" d="M339.71,167.17c2,0,3.76.22,5.28.65,1.53.44,2.71,1.03,3.57,1.77s1.28,1.62,1.28,2.64c0,.62-.19,1.21-.57,1.77-.38.56-.93.84-1.66.84-.58,0-1.04-.08-1.39-.25-.35-.16-.66-.38-.95-.65-.29-.27-.65-.52-1.09-.74-.36-.22-.94-.4-1.72-.54-.78-.14-1.44-.22-1.99-.22-1.89,0-3.52.43-4.9,1.28-1.38.85-2.44,2.01-3.19,3.46-.75,1.45-1.12,3.12-1.12,5.01s.37,3.45,1.12,4.9c.74,1.45,1.79,2.61,3.13,3.46,1.34.85,2.89,1.28,4.63,1.28,1.05,0,1.92-.07,2.61-.22.69-.14,1.27-.34,1.74-.6.54-.29,1.01-.61,1.39-.95.38-.34.93-.52,1.66-.52.83,0,1.47.26,1.91.79.44.53.65,1.17.65,1.93s-.48,1.57-1.44,2.31c-.96.75-2.25,1.35-3.87,1.83-1.62.47-3.39.71-5.31.71-2.83,0-5.3-.65-7.41-1.96-2.11-1.31-3.73-3.1-4.88-5.37-1.14-2.27-1.71-4.8-1.71-7.6s.61-5.48,1.82-7.73c1.22-2.25,2.9-4.03,5.04-5.34,2.14-1.31,4.59-1.96,7.35-1.96Z"/>
    <path class="cls-1" d="M369.94,167.28c2.54,0,4.49.54,5.86,1.63,1.36,1.09,2.31,2.55,2.86,4.38.54,1.83.82,3.86.82,6.07v14.27c0,.84-.27,1.53-.82,2.1-.54.56-1.22.84-2.02.84s-1.52-.28-2.07-.84c-.54-.56-.82-1.26-.82-2.1v-14.27c0-1.27-.16-2.42-.49-3.43-.33-1.02-.91-1.83-1.74-2.45-.84-.62-2-.93-3.49-.93-1.38,0-2.61.31-3.68.93-1.07.62-1.9,1.44-2.48,2.45-.58,1.02-.87,2.16-.87,3.43v14.27c0,.84-.27,1.53-.82,2.1-.54.56-1.24.84-2.07.84s-1.53-.28-2.07-.84c-.54-.56-.82-1.26-.82-2.1v-34.42c0-.83.27-1.53.82-2.1s1.23-.84,2.07-.84,1.52.28,2.07.84.82,1.26.82,2.1v14.49l-.93.33c.25-.73.68-1.49,1.28-2.29.6-.8,1.33-1.53,2.21-2.21.87-.67,1.84-1.22,2.91-1.63,1.07-.42,2.22-.63,3.46-.63Z"/>
    <path class="cls-1" d="M400.16,197.13c-3.05,0-5.69-.63-7.92-1.91-2.23-1.27-3.96-3-5.17-5.2-1.22-2.2-1.82-4.69-1.82-7.49,0-3.23.65-5.99,1.96-8.28,1.31-2.29,3-4.04,5.09-5.26,2.09-1.22,4.31-1.82,6.67-1.82,1.78,0,3.48.36,5.09,1.09,1.62.73,3.05,1.73,4.3,3,1.25,1.27,2.25,2.76,3,4.47.74,1.71,1.12,3.56,1.12,5.56-.04.76-.35,1.39-.93,1.88-.58.49-1.25.74-2.02.74h-21.02l-1.42-4.85h20.32l-1.04.98v-1.36c-.11-1.23-.54-2.31-1.28-3.21-.75-.91-1.65-1.62-2.72-2.15-1.07-.53-2.21-.79-3.4-.79-1.09,0-2.13.16-3.13.49-1,.33-1.87.86-2.61,1.61s-1.33,1.72-1.77,2.94c-.44,1.22-.65,2.75-.65,4.6,0,2,.41,3.72,1.23,5.17.82,1.45,1.92,2.57,3.3,3.35,1.38.78,2.9,1.17,4.58,1.17,1.31,0,2.39-.13,3.24-.38.85-.25,1.56-.57,2.12-.95.56-.38,1.04-.74,1.44-1.06.62-.33,1.18-.49,1.69-.49.73,0,1.32.25,1.77.74.45.49.68,1.06.68,1.72,0,.83-.42,1.6-1.25,2.29-.98.91-2.33,1.71-4.06,2.4s-3.51,1.04-5.37,1.04Z"/>
    <path class="cls-1" d="M433.22,167.17c2.61,0,4.62.54,6.02,1.63,1.4,1.09,2.37,2.54,2.91,4.36.54,1.82.82,3.83.82,6.04v14.43c0,.84-.27,1.53-.82,2.1-.54.56-1.22.84-2.02.84s-1.53-.28-2.07-.84c-.54-.56-.82-1.26-.82-2.1v-14.38c0-1.27-.17-2.41-.52-3.43-.35-1.02-.95-1.83-1.82-2.45-.87-.62-2.09-.93-3.65-.93-1.45,0-2.72.31-3.81.93-1.09.62-1.94,1.43-2.56,2.45-.62,1.02-.93,2.16-.93,3.43v14.38c0,.84-.27,1.53-.82,2.1-.54.56-1.24.84-2.07.84s-1.53-.28-2.07-.84c-.54-.56-.82-1.26-.82-2.1v-22.93c0-.83.27-1.53.82-2.1.54-.56,1.23-.84,2.07-.84s1.52.28,2.07.84c.54.56.82,1.26.82,2.1v2.89l-.93.33c.25-.73.7-1.49,1.33-2.29.63-.8,1.4-1.53,2.29-2.21.89-.67,1.89-1.22,3-1.63,1.11-.42,2.3-.63,3.57-.63Z"/>
    <path class="cls-1" d="M456.7,193.64c0,.84-.28,1.53-.84,2.1-.56.56-1.26.84-2.1.84s-1.47-.28-2.02-.84c-.54-.56-.82-1.26-.82-2.1v-34.42c0-.83.28-1.53.84-2.1.56-.56,1.26-.84,2.1-.84s1.52.28,2.04.84c.53.56.79,1.26.79,2.1v34.42Z"/>
    <path class="cls-1" d="M487.96,167.33c.83,0,1.53.27,2.07.82s.82,1.25.82,2.12v23.37c0,.84-.27,1.53-.82,2.1-.54.56-1.24.84-2.07.84s-1.53-.28-2.07-.84c-.54-.56-.82-1.26-.82-2.1v-3.54l1.14.27c0,.58-.26,1.25-.79,2.01-.53.76-1.24,1.51-2.12,2.23-.89.73-1.94,1.33-3.16,1.8-1.22.47-2.53.71-3.95.71-2.5,0-4.77-.64-6.78-1.93-2.01-1.29-3.6-3.06-4.77-5.31-1.16-2.25-1.74-4.83-1.74-7.73s.59-5.53,1.77-7.76c1.18-2.23,2.76-3.99,4.74-5.28s4.18-1.93,6.62-1.93c1.56,0,3,.25,4.3.74,1.31.49,2.45,1.12,3.43,1.91s1.74,1.6,2.29,2.45c.54.85.82,1.64.82,2.37l-1.8.33v-4.68c0-.83.27-1.53.82-2.1.54-.56,1.23-.84,2.07-.84ZM476.85,191.84c1.71,0,3.2-.43,4.47-1.28,1.27-.85,2.26-2.02,2.97-3.49.71-1.47,1.06-3.11,1.06-4.93s-.35-3.46-1.06-4.93c-.71-1.47-1.7-2.63-2.97-3.49-1.27-.85-2.76-1.28-4.47-1.28s-3.09.43-4.36,1.28c-1.27.85-2.26,2.01-2.97,3.46s-1.06,3.1-1.06,4.96.35,3.46,1.06,4.93c.71,1.47,1.7,2.63,2.97,3.49,1.27.85,2.72,1.28,4.36,1.28Z"/>
    <path class="cls-1" d="M513.29,167.17c2.61,0,4.62.54,6.02,1.63,1.4,1.09,2.37,2.54,2.91,4.36.54,1.82.82,3.83.82,6.04v14.43c0,.84-.27,1.53-.82,2.1-.54.56-1.22.84-2.02.84s-1.53-.28-2.07-.84c-.54-.56-.82-1.26-.82-2.1v-14.38c0-1.27-.17-2.41-.52-3.43-.35-1.02-.95-1.83-1.82-2.45-.87-.62-2.09-.93-3.65-.93-1.45,0-2.72.31-3.81.93-1.09.62-1.94,1.43-2.56,2.45-.62,1.02-.93,2.16-.93,3.43v14.38c0,.84-.27,1.53-.82,2.1-.54.56-1.24.84-2.07.84s-1.53-.28-2.07-.84c-.54-.56-.82-1.26-.82-2.1v-22.93c0-.83.27-1.53.82-2.1.54-.56,1.23-.84,2.07-.84s1.52.28,2.07.84c.54.56.82,1.26.82,2.1v2.89l-.93.33c.25-.73.7-1.49,1.33-2.29.63-.8,1.4-1.53,2.29-2.21.89-.67,1.89-1.22,3-1.63,1.11-.42,2.3-.63,3.57-.63Z"/>
    <path class="cls-1" d="M553.86,156.28c.83,0,1.53.27,2.07.82s.82,1.25.82,2.12v34.42c0,.84-.27,1.53-.82,2.1-.54.56-1.24.84-2.07.84s-1.53-.28-2.07-.84c-.54-.56-.82-1.26-.82-2.1v-3.54l1.14.16c0,.62-.26,1.32-.79,2.1-.53.78-1.24,1.52-2.12,2.23-.89.71-1.94,1.31-3.16,1.8-1.22.49-2.53.74-3.95.74-2.5,0-4.76-.64-6.75-1.93s-3.59-3.06-4.77-5.31c-1.18-2.25-1.77-4.81-1.77-7.68s.59-5.54,1.77-7.79c1.18-2.25,2.76-4.02,4.74-5.31s4.18-1.93,6.62-1.93c1.53,0,2.95.25,4.28.74,1.33.49,2.48,1.12,3.46,1.91s1.74,1.6,2.29,2.45c.54.85.82,1.64.82,2.37l-1.8.33v-15.74c0-.83.27-1.53.82-2.1.54-.56,1.23-.84,2.07-.84ZM542.75,191.84c1.71,0,3.2-.43,4.47-1.28,1.27-.85,2.26-2.01,2.97-3.46.71-1.45,1.06-3.09,1.06-4.9s-.35-3.56-1.06-5.01c-.71-1.45-1.7-2.61-2.97-3.46-1.27-.85-2.76-1.28-4.47-1.28s-3.09.43-4.36,1.28c-1.27.85-2.26,2.01-2.97,3.46s-1.06,3.12-1.06,5.01.35,3.45,1.06,4.9,1.7,2.61,2.97,3.46c1.27.85,2.72,1.28,4.36,1.28Z"/>
    <path class="cls-1" d="M592.53,197.13c-3.05,0-5.69-.63-7.92-1.91-2.23-1.27-3.96-3-5.17-5.2-1.22-2.2-1.82-4.69-1.82-7.49,0-3.23.65-5.99,1.96-8.28,1.31-2.29,3-4.04,5.09-5.26,2.09-1.22,4.31-1.82,6.67-1.82,1.78,0,3.48.36,5.09,1.09,1.62.73,3.05,1.73,4.3,3,1.25,1.27,2.25,2.76,3,4.47.74,1.71,1.12,3.56,1.12,5.56-.04.76-.35,1.39-.93,1.88-.58.49-1.25.74-2.02.74h-21.02l-1.42-4.85h20.32l-1.04.98v-1.36c-.11-1.23-.54-2.31-1.28-3.21-.75-.91-1.65-1.62-2.72-2.15-1.07-.53-2.21-.79-3.4-.79-1.09,0-2.13.16-3.13.49-1,.33-1.87.86-2.61,1.61s-1.33,1.72-1.77,2.94c-.44,1.22-.65,2.75-.65,4.6,0,2,.41,3.72,1.23,5.17.82,1.45,1.92,2.57,3.3,3.35,1.38.78,2.9,1.17,4.58,1.17,1.31,0,2.39-.13,3.24-.38.85-.25,1.56-.57,2.12-.95.56-.38,1.04-.74,1.44-1.06.62-.33,1.18-.49,1.69-.49.73,0,1.32.25,1.77.74.45.49.68,1.06.68,1.72,0,.83-.42,1.6-1.25,2.29-.98.91-2.33,1.71-4.06,2.4s-3.51,1.04-5.37,1.04Z"/>
    <path class="cls-1" d="M612.9,196.53c-.95,0-1.67-.25-2.18-.76-.51-.51-.76-1.25-.76-2.23v-.98c0-.94.25-1.67.76-2.18s1.23-.76,2.18-.76h.6c.94,0,1.67.25,2.18.76.51.51.76,1.23.76,2.18v.98c0,.98-.25,1.72-.76,2.23-.51.51-1.23.76-2.18.76h-.6Z"/>
    <path class="cls-1" d="M651.63,158.35c.83,0,1.54.26,2.12.79.58.53.87,1.19.87,1.99,0,.44-.09.87-.27,1.31l-13.73,32.3c-.29.62-.7,1.08-1.23,1.39s-1.06.46-1.61.46c-.51-.04-1.01-.21-1.5-.52-.49-.31-.86-.75-1.12-1.33l-13.67-32.3c-.11-.18-.18-.38-.22-.6-.04-.22-.05-.44-.05-.65,0-.91.33-1.61,1.01-2.1.67-.49,1.32-.74,1.93-.74,1.2,0,2.09.62,2.67,1.85l12.31,29.14-1.69.05,11.55-29.19c.54-1.23,1.42-1.85,2.61-1.85Z"/>
    <path class="cls-1" d="M662.36,196.53c-.95,0-1.67-.25-2.18-.76-.51-.51-.76-1.25-.76-2.23v-.98c0-.94.25-1.67.76-2.18s1.23-.76,2.18-.76h.6c.94,0,1.67.25,2.18.76.51.51.76,1.23.76,2.18v.98c0,.98-.25,1.72-.76,2.23-.51.51-1.23.76-2.18.76h-.6Z"/>
  </g>
  <g>
    <path class="cls-1" d="M92.94,91.47c14.1-1.07,16.14,10.93,18.4,14.46,6.1,9.55,4.21-17.22,23.73-13.34,10.21,2.03,13.64,13.18,12.78,22.33-1.27,13.58-21.44,37.25-34.27,42.97.09,3.93.19,7.86.28,11.8,22.93,18.03,67.1,28.63,70.78-11.52.74-8.03-1.45-15.51,1.26-16.71,4.75-2.1,4.98,3.26,5.2,6.32,2.15,30.92-15.43,49.36-46.76,43.11-7.25,24.55-57.87,22.85-65.72-.56-27.75,6.02-46.84-7.81-47.61-36.37-.05-2,.23-10.6.84-11.8,1.17-2.29,5.31-1.89,5.9.56.58,2.41-3.17,21.66,6.46,33.42,14.98,18.29,48.08,5.75,63.48-6.46-.09-4.03-.19-8.05-.28-12.08-12.09-6.29-27.12-29.62-28.93-42.41-1.45-10.28,2.57-22.83,14.46-23.73ZM110.35,175.73c-7.84,5.38-16.31,9.95-25.42,12.78,5.02,16.05,38.12,16.98,48.45,8,1.18-1.02,5.49-6.27,3.93-7.58-3.46-1.31-6.93-2.62-10.39-3.93-2.81-1.5-5.62-3-8.43-4.49-1.56-.88-6.95-4.97-8.15-4.77Z"/>
    <path class="cls-1" d="M56.98,102.42c5.45-.72,5.95,7.1,1.69,7.86-5.58,1-6.52-7.22-1.69-7.86Z"/>
    <path class="cls-1" d="M165.12,102.98c7.73-1.26,9.31,10.34,2.25,11.23-7.54.96-8.79-10.17-2.25-11.23Z"/>
    <path class="cls-1" d="M40.41,118.15c7.8-1.23,8.85,9.19,2.81,10.67-7.99,1.97-9.51-9.62-2.81-10.67Z"/>
    <path class="cls-1" d="M182.81,118.99c6.38-1.05,7.07,7.96,2.53,8.99-7.01,1.58-7.88-8.11-2.53-8.99Z"/>
    <path class="cls-1" d="M61.76,127.7c6.51-1.36,7.55,7.94,2.53,8.99-6.53,1.36-7.56-7.94-2.53-8.99Z"/>
    <path class="cls-1" d="M159.5,129.38c5.33-.73,5.57,7.19,1.12,7.58-4.68.41-5.56-6.98-1.12-7.58Z"/>
  </g>
  <g id="LFvktZ">
    <path class="cls-2" d="M113.58,157.89c-1.44.81-4.57.66-6.18-.28M107.4,157.6c-12.09-6.29-27.12-29.62-28.93-42.41-1.45-10.28,2.57-22.83,14.46-23.73,14.1-1.07,16.14,10.93,18.4,14.46,6.1,9.55,4.21-17.22,23.73-13.34,10.21,2.03,13.64,13.18,12.78,22.33-1.27,13.58-21.44,37.25-34.27,42.97"/>
  </g>
</svg>