<svg xmlns="http://www.w3.org/2000/svg" version="1.1" viewBox="-5.0 -10.0 110.0 135.0">
 <path d="m23.629 38.172c-10.531 10.531-10.531 27.66 0 38.199 5.2695 5.2617 12.18 7.8984 19.102 7.8984s13.828-2.6289 19.102-7.8984c9.4414-9.4492 10.41-24.199 2.9102-34.738l10.781-10.781v7.3789c0 2.3516 1.9102 4.2617 4.2617 4.2617 2.3516 0 4.2617-1.9102 4.2617-4.2617v-18.012c0-2.3516-1.9102-4.2617-4.2617-4.2617h-18.012c-2.3516 0-4.2617 1.9102-4.2617 4.2617s1.9102 4.2617 4.2617 4.2617h7.3789l-10.781 10.781c-10.539-7.5-25.301-6.5312-34.738 2.9102zm31.832 31.828c-7.0195 7.0195-18.449 7.0195-25.469 0-7.0195-7.0195-7.0195-18.449 0-25.469 7.0195-7.0195 18.449-7.0195 25.469 0 7.0195 7.0195 7.0195 18.449 0 25.469z" fill="#666"/>
</svg>