<?xml version="1.0" encoding="UTF-8" standalone="no"?>
<svg
   id="Ebene_1"
   data-name="Ebene 1"
   viewBox="0 0 679.99997 175.18"
   version="1.1"
   width="680"
   height="175.17999"
   sodipodi:docname="mfts-header.svg"
   inkscape:version="1.4 (e7c3feb100, 2024-10-09)"
   xmlns:inkscape="http://www.inkscape.org/namespaces/inkscape"
   xmlns:sodipodi="http://sodipodi.sourceforge.net/DTD/sodipodi-0.dtd"
   xmlns="http://www.w3.org/2000/svg"
   xmlns:svg="http://www.w3.org/2000/svg">
  <sodipodi:namedview
     id="namedview1"
     pagecolor="#ffffff"
     bordercolor="#000000"
     borderopacity="0.25"
     inkscape:showpageshadow="2"
     inkscape:pageopacity="0.0"
     inkscape:pagecheckerboard="0"
     inkscape:deskcolor="#d1d1d1"
     inkscape:zoom="1.5547192"
     inkscape:cx="537.71769"
     inkscape:cy="136.68063"
     inkscape:window-width="2560"
     inkscape:window-height="1376"
     inkscape:window-x="0"
     inkscape:window-y="0"
     inkscape:window-maximized="1"
     inkscape:current-layer="Ebene_1" />
  <defs
     id="defs1">
    <style
       id="style1">
      .cls-1 {
        fill: #fac075;
      }

      .cls-1, .cls-2, .cls-3, .cls-4, .cls-5 {
        stroke-width: 0px;
      }

      .cls-2 {
        fill: #5fc4e1;
      }

      .cls-3 {
        fill: #acc280;
      }

      .cls-4 {
        fill: #f191a3;
      }

      .cls-5 {
        fill: #9b9b9b;
      }
    </style>
  </defs>
  <path
     class="cls-1"
     d="M 71.198091,148.6478 V 99.483544 H 22.033828 V 148.6478 h 14.102797 c -0.06307,-2.71838 -0.504572,-5.83412 -1.330809,-8.69126 -0.908231,-2.48502 -1.084831,-2.81299 -2.516556,-3.70229 -2.781454,-1.72817 -3.292334,-5.94136 -1.021758,-8.38853 1.961524,-2.11919 3.702299,-4.71774 6.950484,-4.99525 1.393881,-0.30907 1.52633,-1.10376 0.990223,-2.32105 -1.267737,-2.86344 -2.503941,-5.7395 -3.626613,-8.65972 -0.517189,-1.34972 -1.381267,-3.67076 -0.441503,-4.38977 1.759698,-0.965 2.403027,0.74424 3.740144,2.83821 l 4.295171,6.51529 c 0,0 -0.163985,-5.63227 -0.283821,-8.74803 0.01893,-0.80099 -0.06938,-1.79123 0.851465,-2.13812 0.901923,-0.33427 1.520025,0.16399 2.08767,1.00915 0.567643,0.84516 1.311887,3.99243 2.226425,7.30368 1.160516,4.3078 1.677703,6.73604 3.304948,10.79155 0.876695,2.18858 2.030904,3.92935 0.775781,7.92178 -0.700095,1.68401 -0.03153,2.86975 1.299273,3.85368 1.532638,1.13527 3.342791,1.64616 5.115101,2.18858 4.900659,1.5011 7.928093,4.78082 9.422884,9.60579 h 3.241877 z"
     id="path1" />
  <path
     class="cls-3"
     d="M 71.198091,89.984966 V 21.085599 L 22.033828,55.699263 v 34.285703 h 11.176278 c 0.491958,-2.321048 1.658781,-5.581845 2.667926,-7.612743 2.188582,-4.4024 1.936295,-5.670129 -1.75339,-8.994004 -2.800376,-2.516559 -2.182275,-6.881107 1.192053,-8.369606 1.236202,-0.542399 2.409333,-1.192038 2.945441,-2.491318 0.964995,-2.358877 2.730997,-3.588773 5.190789,-3.954586 2.005674,-0.296433 3.197726,-1.51372 3.834747,-3.37433 0.201831,-0.592872 1.015454,-2.951745 1.816463,-3.065274 0.914537,-0.113528 1.034371,0.504572 1.368651,1.059602 1.911067,3.140963 3.809522,6.288232 5.670133,9.467042 1.526331,2.61116 2.661618,5.348456 2.403024,8.476813 -0.252285,3.002209 0.901924,5.487225 2.567013,7.928093 2.440869,3.58247 5.632287,6.584668 6.843268,10.930311 z"
     id="path2" />
  <path
     class="cls-2"
     d="M 130.20153,89.871436 V 55.585735 L 81.03095,20.978379 v 68.89936 h 3.481546 c 3.866292,-11.888996 7.732584,-23.771667 11.586237,-35.666966 0.56766,-1.753388 1.06591,-3.532005 1.67771,-5.266473 0.28383,-0.807316 0.47303,-1.948911 1.42541,-2.093975 1.179437,-0.1766 1.406497,1.116366 1.892157,1.873224 0.73794,1.620939 1.04068,3.418478 1.86692,3.632921 1.37496,0.353201 1.63355,-1.759696 2.62378,-3.021126 0.76316,-1.248817 1.81645,-0.832545 2.0246,0.611793 0.2649,1.822768 0.58656,3.670764 0.50457,5.493536 -0.0947,2.194889 0.83886,3.298638 2.74991,4.181638 2.21382,1.028066 4.37717,2.396716 4.74298,5.146634 0.30275,2.289497 1.63356,3.765368 3.45002,4.862827 1.82908,1.10374 3.77168,2.018281 5.63229,3.071575 1.4948,0.851466 1.91107,1.936298 0.66225,3.399566 -2.78776,3.273404 -6.06117,5.310616 -10.58971,4.51592 -1.81016,-0.315359 -2.59224,0.580261 -2.56702,2.365177 0.0253,2.112903 0.81993,4.774519 1.23621,6.893729 h 16.76442 z"
     id="path3" />
  <path
     class="cls-4"
     d="M 130.20153,148.6478 V 99.483544 H 81.037264 V 148.6478 h 3.65814 c 2.421947,-4.81866 6.319766,-9.35982 5.846733,-15.32638 -0.05677,-1.57049 0.151371,-3.2608 0.37213,-4.21318 1.091123,-4.71776 2.72469,-7.87134 6.855876,-10.90507 6.679277,-4.90697 14.752437,-0.85778 17.540197,4.6799 0.96499,1.91738 1.96784,3.75276 3.12205,5.55031 1.20466,1.87951 2.00567,3.8915 0.83885,6.13686 -0.47935,0.92084 -0.88301,1.9552 -2.01199,0.5361 -0.55503,-0.69379 -1.21727,-0.41628 -1.89215,-0.0819 -0.87669,0.4352 -1.76599,0.88931 -2.69945,1.14791 -1.34974,0.37842 -1.45065,1.04067 -0.80101,2.14442 1.50741,2.58594 4.31409,6.93788 5.00158,10.31851 h 13.33962 z"
     id="path4" />
  <path
     class="cls-2"
     d="m 167.95987,147.63137 c 7.01311,0 11.80645,-3.78515 11.80645,-9.79009 0,-5.25321 -3.48445,-8.40162 -9.24176,-9.57784 l -3.02458,-0.67212 c -3.02458,-0.67213 -4.2008,-1.80415 -4.2008,-3.52868 0,-2.10483 1.59188,-3.48446 4.53687,-3.48446 3.2722,0 4.8287,1.59189 5.37703,3.74092 h 5.46546 v -3.19259 c -0.88438,-3.86475 -4.87294,-6.26142 -10.67446,-6.26142 -6.93354,0 -11.47041,3.52867 -11.47041,9.57783 0,5.08518 3.1926,8.15399 8.94992,9.286 l 2.90076,0.54832 c 3.19262,0.71634 4.62532,1.89257 4.62532,3.94433 0,2.35244 -1.97217,3.69671 -4.91716,3.69671 -3.36064,0 -5.37702,-1.46808 -6.2172,-3.82051 h -5.50083 v 3.14838 c 1.34426,3.48445 5.08519,6.38522 11.59422,6.38522 v 0 z m 16.63519,9.87853 h 6.34098 v -13.36298 c 1.46809,2.18441 3.86476,3.48445 6.93355,3.48445 5.79268,0 9.45403,-4.96136 9.45403,-11.30238 0,-6.34101 -3.44024,-11.17855 -9.45403,-11.17855 -3.11302,0 -5.66888,1.43269 -7.05734,3.65248 l -0.29185,-3.02457 h -5.92534 v 31.71387 0 z m 11.34659,-15.59162 c -3.02459,0 -4.99676,-2.4409 -4.99676,-5.58929 0,-3.14838 1.97217,-5.45663 4.99676,-5.45663 3.31642,0 5.04096,2.39667 5.04096,5.45663 0,3.05997 -1.72454,5.58929 -5.04096,5.58929 z m 22.47208,5.71309 c 3.36065,0 5.25323,-1.60073 6.29679,-3.31642 l 0.4245,2.68851 h 5.71311 v -12.85888 c 0,-5.92534 -3.23684,-8.9853 -9.70165,-8.9853 -6.46482,0 -8.52542,4.36882 -8.52542,4.36882 v 2.81234 h 4.79334 c 0,0 0.88438,-1.92794 3.61711,-1.92794 2.39667,0 3.48445,1.22043 3.48445,3.52867 v 0.9286 c 0,0 -1.75991,-0.42449 -3.94433,-0.42449 -6.17297,0 -9.11795,2.56468 -9.11795,6.59747 0,3.61709 2.30822,6.59746 6.97775,6.59746 v 0 z m 2.06062,-4.87292 c -1.72455,0 -2.77695,-0.67213 -2.77695,-2.30825 0,-1.34426 0.79593,-2.39667 3.28103,-2.39667 2.06061,0 3.5287,0.33607 3.5287,0.33607 v 0.9286 c 0,1.51229 -1.30005,3.44907 -4.03278,3.44907 v 0 z m 15.91884,4.24501 h 6.29678 v -21.21629 h -6.29678 z m -0.16804,-25.20482 h 6.55327 v -5.88115 h -6.55327 z m 22.18025,25.83273 c 7.10158,0 8.73768,-4.96136 8.73768,-4.96136 v -2.81235 h -4.74912 c 0,0 -0.5041,2.27287 -3.98856,2.27287 -3.23682,0 -4.74913,-2.52048 -4.74913,-5.66888 0,-3.14839 1.51231,-5.8369 4.74913,-5.8369 3.23684,0 3.94435,2.27284 3.94435,2.27284 h 4.74912 v -2.81231 c 0,0 -1.5123,-4.95254 -8.69347,-4.95254 -7.18116,0 -11.09012,5.12941 -11.09012,11.34659 0,6.21719 3.6525,11.17856 11.09012,11.17856 v 0 z m 12.5582,-0.62791 h 6.34101 v -11.93029 c 0,-2.06059 0.96397,-4.24501 4.03278,-4.24501 2.52048,0 3.48444,1.68032 3.48444,4.15657 v 12.01873 h 6.2968 V 133.8085 c 0,-4.6253 -1.97218,-8.65806 -7.60567,-8.65806 -3.14839,0 -5.25322,1.72454 -6.2172,3.23683 v -12.89426 h -6.34101 v 31.51045 0 z m 25.75314,0 h 6.29678 v -21.21629 h -6.29678 z m -0.16802,-25.20482 h 6.55325 v -5.88115 h -6.55325 z m 12.26635,25.20482 h 6.341 v -11.93029 c 0,-2.06059 0.96398,-4.24501 4.03278,-4.24501 2.52048,0 3.48446,1.68032 3.48446,4.15657 v 12.01873 h 6.29678 V 133.8085 c 0,-4.6253 -1.97216,-8.65806 -7.60567,-8.65806 -3.31642,0 -5.42126,1.84834 -6.341,3.44907 l -0.29183,-2.81234 h -5.92536 v 21.21629 0 z m 35.87929,10.92209 c 6.88933,0 11.50579,-4.66068 11.50579,-11.88606 v -20.25232 h -5.92534 l -0.33607,2.98036 c -1.38847,-2.1844 -3.82053,-3.65248 -6.88932,-3.65248 -5.92533,0 -9.62204,4.99675 -9.62204,11.21394 0,6.2172 3.61711,10.87789 9.45401,10.87789 3.11302,0 5.54507,-1.17624 6.97776,-3.27221 v 2.27285 c 0,3.60828 -1.68033,6.12876 -5.33281,6.12876 -3.95319,0 -4.82872,-2.81234 -4.82872,-2.81234 h -5.08518 v 2.81234 c 0,0 1.92794,5.58927 10.08192,5.58927 z m 0.16804,-16.1753 c -3.2722,0 -5.08519,-2.44089 -5.08519,-5.50085 0,-3.05995 1.80414,-5.42124 5.04097,-5.42124 3.02458,0 5.04097,2.35245 5.04097,5.42124 0,3.0688 -2.01639,5.50085 -4.99675,5.50085 z m 27.34504,5.88112 c 7.56144,0 9.62204,-4.20079 9.62204,-4.20079 v -2.81235 h -4.96136 c 0,0 -0.75172,1.92796 -4.53687,1.92796 -3.10418,0 -4.7845,-1.84836 -5.16478,-4.70491 h 14.78683 c 0,0 0.29186,-1.22042 0.29186,-2.68851 0,-5.66887 -3.11304,-10.00233 -10.29419,-10.00233 -7.18118,0 -11.17856,5.08518 -11.17856,11.30237 0,6.2172 3.78514,11.17856 11.42618,11.17856 v 0 z m -4.91715,-13.61062 c 0.50409,-2.22863 1.84834,-3.82052 4.61645,-3.82052 2.76812,0 4.24502,1.80414 4.24502,3.82052 z m 19.58016,12.98271 h 6.34101 v -11.93029 c 0,-2.06059 0.96397,-4.24501 4.03276,-4.24501 2.52051,0 3.48448,1.68032 3.48448,4.15657 v 12.01873 h 6.29677 V 133.8085 c 0,-4.6253 -1.97216,-8.65806 -7.60566,-8.65806 -3.31643,0 -5.42125,1.84834 -6.341,3.44907 l -0.29186,-2.81234 h -5.92534 v 21.21629 0 z"
     id="path5" />
  <path
     class="cls-2"
     d="m 386.83006,103.23586 h 6.341 V 87.184376 h 6.76552 v -5.16478 h -6.76552 v -2.396684 c 0,-2.01638 0.75172,-2.94498 2.27286,-2.94498 1.52113,0 1.92795,0.96396 1.92795,1.30003 h 4.70489 v -2.85654 c -0.79593,-2.26402 -2.93614,-3.82052 -6.67707,-3.82052 -5.37703,0 -8.56963,3.23683 -8.56963,8.35738 v 2.352464 h -3.57291 v 5.16477 h 3.57291 v 16.051514 0 z m 20.07543,-25.204828 h 6.09337 v -5.88113 h -6.09337 z m 9.86968,0 h 6.12876 v -5.88113 h -6.12876 z m -4.20081,25.832728 c 3.19261,0 5.20899,-1.84835 6.12876,-3.44023 l 0.29184,2.81233 h 5.92534 V 82.019596 h -6.34099 v 11.93028 c 0,2.06059 -0.96399,4.245026 -3.94435,4.245026 -2.44089,0 -3.36065,-1.68033 -3.36065,-4.156596 v -12.00986 h -6.34099 v 13.1861 c 0,4.625298 2.01637,8.658064 7.64988,8.658064 v 0 z m 17.94407,-0.6279 h 6.341 V 91.385176 c 0,-2.60008 1.0082,-4.53687 3.27221,-4.53687 2.47626,0 2.73273,2.06062 2.77697,2.06062 h 4.8287 v -3.0246 c -0.33607,-2.64429 -2.0606,-4.492654 -5.33282,-4.492654 -2.85654,0 -4.7491,1.636104 -5.66887,3.404884 l -0.29185,-2.76811 h -5.92534 v 21.216264 0 z m 35.62283,0 h 6.97777 V 77.650752 h 9.02951 v -5.92534 h -24.99259 v 5.92534 h 8.98531 z m 20.57952,0 h 6.29678 V 82.019596 h -6.29678 z m -0.16801,-25.204828 h 6.55323 v -5.88113 h -6.55323 z m 22.30406,25.832728 c 7.56143,0 9.62203,-4.200796 9.62203,-4.200796 v -2.812322 h -4.96135 c 0,0 -0.75173,1.927962 -4.53689,1.927962 -3.11301,0 -4.79334,-1.848372 -5.16478,-4.704908 h 14.78686 c 0,0 0.29184,-1.22046 0.29184,-2.68852 0,-5.66888 -3.10419,-10.002354 -10.29421,-10.002354 -7.19,0 -11.17855,5.085194 -11.17855,11.302384 0,6.217198 3.7763,11.169714 11.42619,11.169714 v 0 z m -4.90832,-13.610594 c 0.5041,-2.22863 1.84835,-3.82052 4.62532,-3.82052 2.77694,0 4.24501,1.80414 4.24501,3.82052 h -8.8615 z m 19.35909,12.982694 h 6.34099 V 91.385176 c 0,-2.60008 1.00819,-4.53687 3.2722,-4.53687 2.47627,0 2.73273,2.06062 2.77696,2.06062 h 4.82872 v -3.0246 c -0.33607,-2.64429 -2.06061,-4.492654 -5.33281,-4.492654 -2.85656,0 -4.74914,1.636104 -5.66887,3.404884 l -0.29185,-2.76811 h -5.92534 v 21.216264 0 z m 30.33424,0.6279 c 7.56143,0 9.62203,-4.200796 9.62203,-4.200796 v -2.812322 h -4.95252 c 0,0 -0.76057,1.927962 -4.53687,1.927962 -3.11302,0 -4.79333,-1.848372 -5.16477,-4.704908 h 14.78683 c 0,0 0.29183,-1.22046 0.29183,-2.68852 0,-5.66888 -3.10416,-10.002354 -10.29417,-10.002354 -7.19001,0 -11.17857,5.085194 -11.17857,11.302384 0,6.217198 3.77631,11.169714 11.42621,11.169714 v 0 z m -4.91718,-13.610594 c 0.5041,-2.22863 1.84837,-3.82052 4.61647,-3.82052 2.76812,0 4.24503,1.80414 4.24503,3.82052 z m 38.72702,13.610594 c 7.56145,0 9.62205,-4.200796 9.62205,-4.200796 v -2.812322 h -4.96137 c 0,0 -0.75172,1.927962 -4.53688,1.927962 -3.11301,0 -4.7845,-1.848372 -5.16477,-4.704908 h 14.78683 c 0,0 0.29185,-1.22046 0.29185,-2.68852 0,-5.66888 -3.11302,-10.002354 -10.29419,-10.002354 -7.18118,0 -11.17856,5.085194 -11.17856,11.302384 0,6.217198 3.78515,11.169714 11.4262,11.169714 v 0 z m -4.90831,-13.610594 c 0.50408,-2.22863 1.84835,-3.82052 4.61646,-3.82052 2.76811,0 4.24502,1.80414 4.24502,3.82052 z m 19.78358,12.982694 h 6.76551 v -6.765508 h -6.76551 z m 19.03185,0 h 7.60566 l 10.54182,-28.565468 v -2.93615 h -6.12875 l -8.10976,22.931994 -7.89753,-22.931994 h -6.42943 v 3.36065 l 10.41799,28.149818 v 0 z m 17.93524,0 h 6.7655 v -6.765508 h -6.7655 z"
     id="path6" />
  <path
     class="cls-2"
     d="m 170.24783,96.568762 h 4.66068 l 7.05734,-14.83105 v 21.508118 h 6.93355 V 71.744222 h -8.52544 l -7.48185,16.051494 -7.64104,-16.051494 h -8.56964 v 31.501608 h 6.55326 V 81.737712 Z m 35.45478,7.304988 c 7.56146,0 9.62207,-4.200816 9.62207,-4.200816 v -2.812332 h -4.96138 c 0,0 -0.75173,1.936802 -4.53687,1.936802 -3.10417,0 -4.7845,-1.848362 -5.16478,-4.704908 h 14.78683 c 0,0 0.29185,-1.22042 0.29185,-2.68851 0,-5.66888 -3.11302,-9.993494 -10.29418,-9.993494 -7.18118,0 -11.17856,5.085184 -11.17856,11.302374 0,6.217188 3.77628,11.169714 11.42618,11.169714 v 0 z m -4.91714,-13.610624 c 0.50409,-2.22863 1.84835,-3.82052 4.6253,-3.82052 2.77696,0 4.24503,1.80415 4.24503,3.82052 h -8.86149 z m 19.57132,12.982704 h 6.34102 V 91.315546 c 0,-2.0606 0.96398,-4.24502 4.03276,-4.24502 2.52049,0 3.48446,1.68032 3.48446,4.15659 v 12.018714 h 6.29679 V 90.050886 c 0,-4.6253 -1.97218,-8.658094 -7.60567,-8.658094 -3.31643,0 -5.42125,1.848374 -6.341,3.440254 l -0.29185,-2.81234 h -5.92534 v 21.216274 0 z m 33.90713,0.62792 c 5.7131,0 9.02953,-2.98038 9.02953,-7.181188 0,-4.200786 -2.81233,-5.624626 -6.88931,-6.217176 l -2.68853,-0.38028 c -1.72455,-0.29186 -2.68851,-0.9286 -2.68851,-2.06061 0,-1.132 0.84016,-2.01638 2.85654,-2.01638 2.60893,0 3.60827,1.80413 3.69671,2.26402 h 4.79335 v -2.85655 c -0.92861,-2.18442 -3.48446,-4.032794 -8.3574,-4.032794 -5.37703,0 -8.65808,2.900784 -8.65808,6.977774 0,4.07699 2.52048,5.83691 6.34102,6.341 l 2.68849,0.33606 c 2.01641,0.33606 3.23685,0.84017 3.23685,2.184436 0,1.17621 -0.84016,2.016372 -3.28106,2.016372 -2.93614,0 -4.36884,-1.804132 -4.53687,-2.432042 h -4.74912 v 2.856542 c 0.5041,1.388466 3.40486,4.200816 9.19756,4.200816 v 0 z m 23.52451,0 c 7.10158,0 8.73767,-4.961386 8.73767,-4.961386 v -2.812318 h -4.74911 c 0,0 -0.50409,2.264006 -3.98856,2.264006 -3.23683,0 -4.74911,-2.520476 -4.74911,-5.668866 0,-3.1484 1.51228,-5.83691 4.74911,-5.83691 3.23684,0 3.94434,2.27285 3.94434,2.27285 h 4.74912 v -2.81232 c 0,0 -1.51229,-4.952554 -8.69346,-4.952554 -7.18117,0 -11.09012,5.120584 -11.09012,11.346614 0,6.226028 3.6525,11.169714 11.09012,11.169714 v 0 z m 13.39836,-0.62792 h 6.34102 V 91.315546 c 0,-2.0606 0.96397,-4.24502 4.03276,-4.24502 2.52048,0 3.48447,1.68032 3.48447,4.15659 v 12.018714 h 6.29677 V 90.050886 c 0,-4.6253 -1.97216,-8.658094 -7.60565,-8.658094 -3.1484,0 -5.25323,1.724554 -6.2172,3.236854 V 71.735362 h -6.34101 v 31.501618 0 z m 36.00312,0.62792 c 7.56145,0 9.62204,-4.200816 9.62204,-4.200816 v -2.812332 h -4.95252 c 0,0 -0.76057,1.936802 -4.53687,1.936802 -3.11301,0 -4.79333,-1.848362 -5.16477,-4.704908 h 14.78684 c 0,0 0.29183,-1.22042 0.29183,-2.68851 0,-5.66888 -3.113,-9.993494 -10.29418,-9.993494 -7.18115,0 -11.17857,5.085184 -11.17857,11.302374 0,6.217188 3.7763,11.169714 11.4262,11.169714 v 0 z m -4.91716,-13.610624 c 0.50411,-2.22863 1.84836,-3.82052 4.61647,-3.82052 2.7681,0 4.24502,1.80415 4.24502,3.82052 z m 19.57135,12.982704 h 6.341 V 91.315546 c 0,-2.0606 0.96396,-4.24502 4.03277,-4.24502 2.52048,0 3.48444,1.68032 3.48444,4.15659 v 12.018714 h 6.29678 V 90.050886 c 0,-4.6253 -1.97215,-8.658094 -7.60565,-8.658094 -3.31643,0 -5.42126,1.848374 -6.34101,3.440254 l -0.29183,-2.81234 h -5.92535 v 21.216274 0 z"
     id="path7" />
  <path
     class="cls-5"
     d="m 159.81751,55.720965 h 4.31727 V 39.862621 h 5.59537 v -3.67345 h -15.48909 v 3.67345 h 5.57645 z m 12.82869,0 h 4.32671 V 36.189171 h -4.32671 v 19.522318 0 z m 8.85225,0 h 12.26061 v -3.673463 h -7.94336 v -4.658095 h 7.025 v -3.379939 h -7.025 v -4.13738 h 7.94336 v -3.682917 h -12.26061 v 19.522318 0 z m 20.28919,0 v -6.873531 h 1.74206 l 4.99892,6.873531 h 3.72079 v -2.035557 l -4.5066,-5.907812 c 2.21541,-1.041445 3.51249,-2.963375 3.51249,-5.368169 0,-3.796535 -2.85923,-6.220256 -7.39425,-6.220256 h -6.4096 v 19.522318 h 4.32672 z m -0.0852,-10.367103 v -5.491241 h 2.13969 c 1.97874,0 3.09592,1.088785 3.09592,2.603609 0,1.74205 -1.174,2.887632 -3.09592,2.887632 z m 20.08091,10.755266 c 4.34564,0 7.31847,-2.3385 7.31847,-6.068775 0,-3.256876 -2.1586,-5.207212 -5.7279,-5.936231 l -1.87462,-0.416559 c -1.87459,-0.41658 -2.6036,-1.117186 -2.6036,-2.187035 0,-1.297071 0.98464,-2.158628 2.81189,-2.158628 2.02608,0 2.99178,0.984642 3.33263,2.319578 h 3.38941 v -1.97874 c -0.54911,-2.395319 -3.0202,-3.881741 -6.61789,-3.881741 -4.29831,0 -7.1102,2.187028 -7.1102,5.936222 0,3.152735 1.97874,5.046258 5.54804,5.756339 l 1.79885,0.34083 c 1.97874,0.444977 2.85924,1.173978 2.85924,2.44264 0,1.458044 -1.22134,2.291195 -3.04859,2.291195 -2.08288,0 -3.33261,-0.908895 -3.85334,-2.366917 h -3.40834 v 1.950357 c 0.83314,2.158595 3.15272,3.957465 7.18595,3.957465 z m 19.28562,0 c 4.83796,0 7.1386,-2.631999 7.55518,-4.194172 v -1.978743 h -3.40836 c -0.17987,0.757407 -1.32547,2.471068 -4.09004,2.471068 -3.22844,0 -5.28293,-2.556267 -5.28293,-6.485351 0,-3.92908 2.05449,-6.45695 5.28293,-6.45695 2.8119,0 3.80601,1.618968 3.9575,2.366917 h 3.40834 v -1.978744 c -0.31242,-1.278132 -2.21542,-4.061625 -7.42262,-4.061625 -5.75634,0 -9.55287,4.033224 -9.55287,10.158788 0,6.125593 3.5693,10.149336 9.55287,10.149336 v 0 z m 10.72685,-0.388163 h 4.32672 v -8.199001 h 7.64987 v 8.199001 h 4.32672 V 36.189171 h -4.32672 v 7.678263 h -7.64987 v -7.678263 h -4.32672 v 19.522318 0 z m 28.66806,0.388163 c 4.7433,0 7.85815,-3.389428 7.85815,-7.545718 V 36.189171 h -4.06162 v 12.39318 c 0,2.139686 -1.38228,3.853326 -3.82491,3.853326 -2.44269,0 -3.69241,-1.723116 -3.69241,-3.853326 v -12.39318 h -4.32671 v 12.364763 c 0,4.165766 3.12433,7.545718 8.0475,7.545718 v 0 z m 16.14237,-0.388163 h 4.3267 V 39.862621 h 5.5954 v -3.67345 h -15.48909 v 3.67345 h 5.56699 z m 26.92601,0 v -3.673463 h -9.53394 l 9.24044,-12.440508 V 36.189171 H 309.1509 v 3.67345 h 9.0132 l -9.26884,12.449964 v 3.40838 z m 8.17059,0 h 4.7149 l 6.53266,-17.704536 v -1.827258 h -3.79652 l -5.02732,14.220425 -4.89479,-14.220425 h -3.98588 v 2.082885 z m 14.50445,0 h 12.26061 v -3.673463 h -7.94335 v -4.658095 h 7.02501 v -3.379939 h -7.02501 v -4.13738 h 7.94335 V 36.189171 H 346.2073 v 19.522318 0 z m 20.27972,0 v -6.873531 h 1.74205 l 4.99892,6.873531 h 3.72079 v -2.035557 l -4.50658,-5.907812 c 2.21541,-1.041445 3.51249,-2.963375 3.51249,-5.368169 0,-3.796535 -2.86871,-6.220256 -7.39424,-6.220256 h -6.40017 v 19.522318 h 4.31728 z m -0.0758,-10.367103 v -5.491241 h 2.1397 c 1.97873,0 3.09593,1.088785 3.09593,2.603609 0,1.74205 -1.174,2.887632 -3.09593,2.887632 z m 13.76598,10.367103 h 12.26062 v -3.673463 h -7.94337 v -4.658095 h 7.03447 v -3.379939 h -7.03447 v -4.13738 h 7.94337 V 36.189171 H 380.1772 v 19.522318 0 z m 15.96247,0 h 4.31726 V 36.189171 h -4.31726 v 19.522318 0 z m 8.85228,0 h 4.06162 V 43.507669 l 8.30313,12.213296 h 4.0616 V 36.189171 h -4.06164 v 12.421566 l -8.30313,-12.421566 h -4.06161 v 19.522318 0 z"
     id="path8" />
</svg>
