<?xml version="1.0" encoding="UTF-8"?>
<svg id="Ebene_1" data-name="Ebene 1" xmlns="http://www.w3.org/2000/svg" viewBox="0 0 171.5 202.43">
  <defs>
    <style>
      .cls-1 {
        fill: #fac075;
      }

      .cls-1, .cls-2, .cls-3, .cls-4 {
        stroke-width: 0px;
      }

      .cls-2 {
        fill: #5fc4e1;
      }

      .cls-3 {
        fill: #acc280;
      }

      .cls-4 {
        fill: #f191a3;
      }
    </style>
  </defs>
  <path class="cls-1" d="M77.95,202.43v-77.95H0v77.95h22.36c-.1-4.31-.8-9.25-2.11-13.78-1.44-3.94-1.72-4.46-3.99-5.87-4.41-2.74-5.22-9.42-1.62-13.3,3.11-3.36,5.87-7.48,11.02-7.92,2.21-.49,2.42-1.75,1.57-3.68-2.01-4.54-3.97-9.1-5.75-13.73-.82-2.14-2.19-5.82-.7-6.96,2.79-1.53,3.81,1.18,5.93,4.5l6.81,10.33s-.26-8.93-.45-13.87c.03-1.27-.11-2.84,1.35-3.39,1.43-.53,2.41.26,3.31,1.6.9,1.34,2.08,6.33,3.53,11.58,1.84,6.83,2.66,10.68,5.24,17.11,1.39,3.47,3.22,6.23,1.23,12.56-1.11,2.67-.05,4.55,2.06,6.11,2.43,1.8,5.3,2.61,8.11,3.47,7.77,2.38,12.57,7.58,14.94,15.23h5.14Z"/>
  <path class="cls-3" d="M77.95,109.41V.17L0,55.05v54.36h17.72c.78-3.68,2.63-8.85,4.23-12.07,3.47-6.98,3.06-8.99-2.78-14.26-4.44-3.99-3.46-10.91,1.89-13.27,1.96-.86,3.82-1.89,4.67-3.95,1.53-3.74,4.33-5.69,8.23-6.27,3.18-.47,5.07-2.4,6.08-5.35.32-.94,1.61-4.68,2.88-4.86,1.45-.18,1.64.8,2.17,1.68,3.03,4.98,6.04,9.97,8.99,15.01,2.42,4.14,4.22,8.48,3.81,13.44-.4,4.76,1.43,8.7,4.07,12.57,3.87,5.68,8.93,10.44,10.85,17.33h5.14Z"/>
  <path class="cls-2" d="M171.5,109.24v-54.36L93.54,0v109.24h5.52c6.13-18.85,12.26-37.69,18.37-56.55.9-2.78,1.69-5.6,2.66-8.35.45-1.28.75-3.09,2.26-3.32,1.87-.28,2.23,1.77,3,2.97,1.17,2.57,1.65,5.42,2.96,5.76,2.18.56,2.59-2.79,4.16-4.79,1.21-1.98,2.88-1.32,3.21.97.42,2.89.93,5.82.8,8.71-.15,3.48,1.33,5.23,4.36,6.63,3.51,1.63,6.94,3.8,7.52,8.16.48,3.63,2.59,5.97,5.47,7.71,2.9,1.75,5.98,3.2,8.93,4.87,2.37,1.35,3.03,3.07,1.05,5.39-4.42,5.19-9.61,8.42-16.79,7.16-2.87-.5-4.11.92-4.07,3.75.05,3.35,1.3,7.57,1.96,10.93h26.58Z"/>
  <path class="cls-4" d="M171.5,202.43v-77.95h-77.95v77.95h5.8c3.84-7.64,10.02-14.84,9.27-24.3-.09-2.49.24-5.17.59-6.68,1.73-7.48,4.32-12.48,10.87-17.29,10.59-7.78,23.39-1.36,27.81,7.42,1.53,3.04,3.12,5.95,4.95,8.8,1.91,2.98,3.18,6.17,1.33,9.73-.76,1.46-1.4,3.1-3.19.85-.88-1.1-1.93-.66-3-.13-1.39.69-2.8,1.41-4.28,1.82-2.15.6-2.3,1.65-1.27,3.4,2.39,4.1,6.84,11,7.93,16.36h21.15Z"/>
</svg>